<svg
  xmlns="http://www.w3.org/2000/svg"
  width="100"
  height="100"
  viewBox="0 0 100 100"
  fill="currentColor"
  class="r6data__loadout r6data__loadout__attachment_skins"
  id="attachment_skins"
>
  <mask id="mask">
    <rect fill="#ffffff" width="100%" height="100%" />
    <path d="M33 80C41 78 77 66 38 15" />
  </mask>
  <path fill-rule="evenodd" d="M26 7 45 41C57 66 34 74 26 74 18 74-3 66 9 41ZM11 60A17.2 17.2 0 1039 41 17.2 17.2 0 0111 60" />
  <path mask="url(#mask)" d="M38 15 48 5Q51 3 54 6L69 21Q72 24 69 27L53 43M79 31 95 47Q98 50 95 53L80 68Q77 71 74 68L58 52Q55 49 58 46L73 31Q76 28 79 31M55 58 69 73Q72 76 69 79L53 95Q50 97 47 94L33 80" />
</svg>
