<svg
  xmlns="http://www.w3.org/2000/svg"
  width="512"
  height="512"
  viewBox="0 0 512 512"
  fill="currentColor"
  class="r6data__loadout r6data__loadout__charm"
  id="charm"
>
  <path
    fill-rule="evenodd"
    d="M147 182a1 1 0 00218 0 1 1 0 00-218 0M169 182a1 1 0 00174 0 1 1 0 00-174 0M191 182a1 1 0 00130 0 1 1 0 00-130 0"
  />
  <path
    d="M124 198q-69 0-69 58v32q0 53 69 53h266q69 0 69-53v-32q0-58-69-58V166Q495 166 495 256V288Q495 378 389 378H366v42q0 16-16 16H162q-16 0-16-16v-42H123q-106 0-106-90v-32q0-90 107-90Z"
  />
</svg>
