<svg
  xmlns="http://www.w3.org/2000/svg"
  width="512"
  height="512"
  viewBox="0 0 512 512"
  fill="currentColor"
  class="r6data__loadout r6data__loadout__skins"
  id="skins"
>
  <defs>
    <mask id="mask">
      <rect fill="white" x="0" y="0" width="512" height="512" />
      <path
        fill="black"
        d="M133-57l136 244c87 179-78 237-136 237-57 0-207-57-122-237Z"
      />
    </mask>
  </defs>
  <path
    fill-rule="evenodd"
    d="M133 36l97 174c62 128-56 169-97 169-41 0-148-41-87-169ZM56 307A88 88 90 10200 210 88 88 90 0156 307"
  />
  <path
    mask="url(#mask)"
    d="M14 258l232-232Q261 15 276 31L486 241Q502 256 486 271L271 486Q256 497 241 481Z"
  />
</svg>
