<svg
  xmlns="http://www.w3.org/2000/svg"
  width="512"
  height="512"
  viewBox="0 0 512 512"
  fill="#ffffff"
  stroke="none"
  class="r6data__operator r6data__operator__ability r6data__operator__ability__nomad r6data__operator__ability__airjab_launcher"
  id="airjab_launcher"
>
  <path id="top-1" d="M111 76C197-14 360 2 429 101 357 27 220 1 111 76Z" />
  <use href="#top-1" transform="rotate(120 256 256)" />
  <use href="#top-1" transform="rotate(240 256 256)" />
  <path id="top-2" d="M62 192C82 92 211 13 315 62 201 44 113 94 62 192Z" />
  <use href="#top-2" transform="rotate(120 256 256)" />
  <use href="#top-2" transform="rotate(240 256 256)" />
  <path
    fill-rule="evenodd"
    d="M159 174c4-46 60-64 93-50 13-24 42-12 42 9 50-28 126 50 90 101 40 38 7 114-35 117 5 43-101 73-123 30-40 28-87-32-75-70-12 12-10 24-8 35-23-2-33-30-25-51-33-50-4-119 41-121M157 256a1 1 0 00198 0 1 1 0 00-198 0"
  />
  <path d="M115 177c3-26 29-51 56-53-15 11-19 25-20 36-12 1-26 8-36 17" />
  <path id="circle" d="M210 228a1 1 0 0036 0 1 1 0 00-36 0" />
  <use href="#circle" transform="rotate(90 256 256)" />
  <use href="#circle" transform="rotate(180 256 256)" />
  <use href="#circle" transform="rotate(270 256 256)" />
</svg>
