<svg
  xmlns="http://www.w3.org/2000/svg"
  width="512"
  height="512"
  viewBox="0 0 512 512"
  fill="#ffffff"
  stroke="none"
  class="r6data__operator r6data__operator__ability r6data__operator__ability__ash r6data__operator__ability__breaching_rounds"
  id="breaching_rounds"
>
  <defs>
    <mask id="mask-1">
      <rect fill="white" x="0" y="0" width="512" height="512" />
      <path fill="black" d="M200 115l98 53-2 6-98-53Zm0 24 98 53-2 6-98-53Zm0 24 98 53-2 6-98-53Zm0 24 98 53-2 6-98-53Z" />
    </mask>
    <mask id="mask-2">
      <rect fill="white" x="0" y="0" width="512" height="512" />
      <path fill="black" d="M324 136l50-23-23 50Z" />
    </mask>
  </defs>
  <g transform="rotate(45 256 256)">
    <path mask="url(#mask-1)" d="M198 303 180 285V239L238 107 294 244V275L278 303Z" />
    <path d="M198 319h27v96h26v-96h27v124h-80Z" />
    <path d="M198 459h81l-26 28h-30Z" />
    <path id="fin" d="M121 439l61-51v58l-61 13Z" />
    <use href="#fin" transform="translate(474) scale(-1 1)" />
  </g>
  <path mask="url(#mask-2)" d="M205 103c223-95 289 261 47 252 183-45 140-275-47-252m39-11 19-53 24 51zm51-9 20-32 2 37zm50 25 80-47-47 79zm57 94 65 17-64 21zm0 48 76 55-93-11zm-6 62 48 55-70-32zm-45 19 9 35-32-23zm-23 12-8 53-28-44z" />
</svg>
