<svg
  xmlns="http://www.w3.org/2000/svg"
  width="512"
  height="512"
  viewBox="0 0 512 512"
  fill="#ffffff"
  stroke="none"
>
  <defs>
    <mask id="mask">
      <rect fill="white" x="0" y="0" width="512" height="512" />
      <path fill="black" d="M248 89H264V191H248Z" />
      <path fill="black" d="M187 209H325L256 303Z" />
      <path fill="black" d="M248 321 256 328 264 321v102h-16Z" />
    </mask>
  </defs>
  <path fill-rule="evenodd" d="M104 16H408V496H104ZM120 46H392V466H120ZM148 24h56v14h-56ZM308 24h56v14h-56ZM148 474h56v14h-56ZM308 474h56v14h-56Z" />
  <path mask="url(#mask)" d="M132 59h248v46h-248Zm0 58h248v46h-248Zm0 58h248v46h-248Zm0 58h248v46h-248Zm0 58h248v46h-248Zm0 58h248v46h-248Zm0 58h248v46h-248Z" />
  <path d="M222 227H290L256 276Z" />
</svg>
