<svg
  xmlns="http://www.w3.org/2000/svg"
  width="512"
  height="512"
  viewBox="0 0 512 512"
  fill="#ffffff"
  stroke="none"
  class="r6data__operator r6data__operator__ability r6data__operator__ability__caveira r6data__operator__ability__silent_step"
  id="silent_step"
>
  <defs>
    <mask id="mask-1">
      <rect fill="white" x="0" y="0" width="512" height="512" />
      <path fill="black" d="M90 164H250V182H90V207H250V232H90V258H250V274H90V373l160-10V392l-160 10Z" />
    </mask>
    <mask id="mask-2">
      <rect fill="white" x="0" y="0" width="512" height="512" />
      <path fill="black" d="M260 24H440V62H260V76H440V104H260V120H440V142H260V164H440V184H260V210H440V248l-180-12V268H440V280H260Z" />
    </mask>
  </defs>
  <path mask="url(#mask-1)" d="M97 266C91 112 242 97 230 266 230 290 208 346 209 376 224 449 214 496 167 496 130 496 105 442 124 380 99 355 97 313 97 266" />
  <path mask="url(#mask-2)" d="M297 16H394C408 52 416 93 415 132 415 165 405 206 393 231 405 285 380 337 345 337 294 337 288 271 305 231 309 225 300 182 292 140 283 106 282 58 297 16" />
</svg>
