<svg
  xmlns="http://www.w3.org/2000/svg"
  width="512"
  height="512"
  viewBox="0 0 512 512"
  fill="#ffffff"
  stroke="none"
  class="r6data__operator r6data__operator__ability r6data__operator__ability__ela r6data__operator__ability__grzmot_mine"
  id="grzmot_mine"
>
  <path
    fill-rule="evenodd"
    d="M160 165V133A1 1 0 00160 123V106C160 99 154 104 154 89 154 81 158 71 165 66 164 44 187 45 203 43 218 42 233 18 259 25 266 15 292 10 304 30 302 32 297 48 297 62 291 72 274 75 264 62 257 62 252 61 246 59 247 68 253 65 261 68 266 81 295 85 312 69 314 56 313 47 322 39 331 39 336 46 336 51 336 58 337 67 334 73 346 76 351 92 343 103 348 114 348 123 343 135 349 142 350 154 343 162 357 185 331 208 312 195 308 193 290 203 301 210 310 215 321 217 331 217L288 249ZM174 68C181 84 187 110 206 110 216 110 218 105 227 105 241 105 246 127 255 127 267 127 269 112 270 106 273 120 268 141 253 141 240 141 230 128 227 121 212 135 171 129 174 68M237 142C240 160 248 165 252 167 281 195 268 153 275 146 285 137 324 158 321 86 346 136 314 158 289 160 291 181 283 191 273 193 257 196 230 173 237 142"
  />
  <path d="M123 87V99C-11 100 269 316 381 320 135 323-14 69 123 87" />
  <path d="M368 142C511 140 324 379 124 377 288 325 477 157 368 154Z" />
  <path
    d="M56 290 91 278 96 247 116 275 148 275 131 301 141 329 111 320 83 341 83 309Z"
  />
  <path d="M167 284 204 304 168 326Q156 305 167 284" />
  <path
    d="M384 292 399 274 393 251 417 262 438 250 435 273 454 291 429 295 417 317 408 296Z"
  />
  <path
    d="M284 362C295 357 306 350 315 342H329C346 342 336 407 303 391L300 371Z"
  />
  <path d="M216 387l27-9v38h26v-43q7 16 27 17v60h-80Z" />
  <path d="M216 454h80v12h-80Z" />
  <path d="M224 474h64l-7 12v10h-50v-10Z" />
</svg>
