<svg
  xmlns="http://www.w3.org/2000/svg"
  width="512"
  height="512"
  viewBox="0 0 512 512"
  fill="#ffffff"
  stroke="none"
  class="r6data__operator r6data__operator__ability r6data__operator__ability__glaz r6data__operator__ability__flip_sight"
  id="flip_sight"
>
  <defs>
    <mask id="mask">
      <rect fill="white" x="0" y="0" width="512" height="512" />
      <path id="mask-top" fill="black" d="M250 65h12v108h-12Z" />
      <use href="#mask-top" transform="rotate(90 256 256)" />
      <use href="#mask-top" transform="rotate(180 256 256)" />
      <use href="#mask-top" transform="rotate(270 256 256)" />
    </mask>
  </defs>
  <g mask="url(#mask)">
    <path
      fill-rule="evenodd"
      d="M130 256a1 1 0 00252 0 1 1 0 00-252 0M146 256a1 1 0 00220 0 1 1 0 00-220 0"
    />
    <path d="M183 198a1 1 0 0024 0 1 1 0 00-24 0" />
    <path
      fill-rule="evenodd"
      d="M211 256a1 1 0 0090 0 1 1 0 00-90 0M231 256a1 1 0 0050 0 1 1 0 00-50 0"
    />
    <path
      id="top"
      fill-rule="evenodd"
      d="M238 53h36v132H264V212H248V185h-10Z"
    />
    <use href="#top" transform="rotate(90 256 256)" />
    <use href="#top" transform="rotate(180 256 256)" />
    <use href="#top" transform="rotate(270 256 256)" />
    <path
      id="left"
      d="M16 256C51 218 113 175 147 165 104 225 104 287 147 347 113 337 51 294 16 256"
    />
    <use href="#left" transform="rotate(180 256 256)" />
  </g>
</svg>
