<svg
  xmlns="http://www.w3.org/2000/svg"
  width="512"
  height="512"
  viewBox="0 0 512 512"
  fill="#ffffff"
  stroke="none"
  class="r6data__operator r6data__operator__ability r6data__operator__ability__frost r6data__operator__ability__welcome_mat"
  id="welcome_mat"
>
  <path d="M80 246h134v20h-134ZM226 256a1 1 0 0060 0 1 1 0 00-60 0M298 246h134v20h-134Z" />
  <g id="top">
    <path d="M94 234V72C94 48 126 16 149 16H363C386 16 418 48 418 72V234H394V84C394 60 374 40 351 40H161C138 40 118 60 118 84V234Z" />
    <path d="M134 234Q134 98 256 98 378 98 378 234H354Q354 122 256 122 158 122 158 234" />
    <g id="left">
      <path d="M156 144l-10-31 31 10Z" />
      <path d="M195 113l3-33 25 21Z" />
    </g>
    <path d="M241 99l15-29 15 29Z" />
    <use href="#left" transform="translate(512) scale(-1 1)" />
  </g>
  <use href="#top" transform="translate(0 512) scale(1 -1)" />
</svg>
