<svg
  xmlns="http://www.w3.org/2000/svg"
  width="512"
  height="512"
  viewBox="0 0 512 512"
  fill="#ffffff"
  stroke="none"
>
  <defs>
    <mask id="mask-1">
      <rect fill="white" x="0" y="0" width="512" height="512" />
      <path fill="black" d="M261 256a1 1 0 0050 0 1 1 0 00-50 0" />
      <path fill="black" d="M92 240H286V272H92Z" />
    </mask>
    <mask id="mask-2">
      <rect fill="white" x="0" y="0" width="512" height="512" />
      <path fill="black" d="M378 190 423 168 385 203Z" />
    </mask>
  </defs>
  <path d="M16 153h124v48h-48v110h48v48H16Z" />
  <path mask="url(#mask-1)" d="M156 153h16V359h-16Z" />
  <path d="M124 248h162v16h-162Z" />
  <path d="M269 256a1 1 0 0034 0 1 1 0 00-34 0" />
  <g id="star" mask="url(#mask-1)">
    <path id="star-1" d="M286 181 308 278 211 256 308 234 286 331 264 234 361 256 264 278 286 181" />
    <use href="#star-1" transform="rotate(45 286 256)" />
  </g>
  <path mask="url(#mask-2)" d="M259 128c237-53 237 309 0 256 188-11 188-245 0-256M299 124 327 75 341 129ZM351 124 377 96 372 133ZM396 158 483 126 422 195ZM435 261 496 290 429 299ZM426 308 491 376 402 348ZM409 368 446 431 383 387ZM361 378 363 414 336 386ZM336 386 318 437 298 389Z" />
</svg>
