<svg
  xmlns="http://www.w3.org/2000/svg"
  width="512"
  height="512"
  viewBox="0 0 512 512"
  fill="#ffffff"
  stroke="none"
  class="r6data__operator r6data__operator__ability r6data__operator__ability__thunderbird r6data__operator__ability__kona_station"
  id="kona_station"
>
  <path
    fill-rule="evenodd"
    d="M78 221V209C78 168 135 168 135 209V221ZM92 200a1 1 0 0029 0 1 1 0 00-29 0"
  />
  <path d="M162 72h56v-56h56v56h56v56h-56v56h-56v-56h-56Z" />
  <path d="M351 135h39v-39h39v39h39v39h-39v39h-39v-39h-39Z" />
  <path
    fill-rule="evenodd"
    d="M42 260 70 238H442L470 260V324L442 346H70L42 324ZM66 279h27v-27h27v27h27v27h-27v27h-27v-27h-27ZM224 284a1 1 0 0064 0 1 1 0 00-64 0"
  />
  <path d="M187 367H325V397H187Z" />
  <path id="leg" d="M106 496l107-99V396h30V397l-107 99Z" />
  <use href="#leg" transform="translate(512) scale(-1 1)" />
  <path d="M244 396h24v100h-24Z" />
</svg>
