<svg
  xmlns="http://www.w3.org/2000/svg"
  width="512"
  height="512"
  viewBox="0 0 512 512"
  fill="#ffffff"
  stroke="none"
  class="r6data__ability r6data__ability__mute r6data__ability__signal_disruptor"
  id="signal_disruptor"
>
  <g>
    <path d="M84 152c62-122 282-122 344 0-108-95-236-95-344 0" />
    <path d="M130 196c58-94 194-94 252 1-73-69-179-69-252-1" />
    <path d="M182 246c25-65 127-65 148 0-50-39-98-39-148 0" />
  </g>
  <path d="M133 295h14v28h15v-28h14v28h15v-28h14v28h15v-28h14v28h15v-28h14v28h15v-28h14v28h15v-28h14v28h15v-28h14v28h15v-28h14v44h-246Z" />
  <g>
    <path d="M87 350l-13-9v-13l-25-13 8-16 25 13 17-17h18v60h278v-60h18l17 17 25-13 8 16-25 13v13l-13 9v39q0 15-15 15h-308q-15 0-15-15Z" />
    <path d="M57 312l-20 11-21-11v-26l21-11 20 11Z" />
    <path d="M496 312l-20 11-21-11v-26l21-11 20 11Z" />
  </g>
  <g>
    <path d="M105 420h56v14H133L125 452h-20Z" />
    <path d="M407 420h-56v14h28l8 18h20Z" />
  </g>
</svg>
