<svg
  xmlns="http://www.w3.org/2000/svg"
  width="512"
  height="512"
  viewBox="0 0 512 512"
  fill="#ffffff"
  stroke="none"
  class="r6data__operator r6data__operator__ability r6data__operator__ability__oryx r6data__operator__ability__remah_dash"
  id="remah_dash"
>
  <path
    fill-rule="evenodd"
    d="M117 119 239 105 260 72 227 56 288 54 288 48C306 50 326 58 341 69 341.6667 66.6667 342.3333 64.3333 343 62 355 69 366 80 371 92L374 88C387 107 384 143 369 154L368 178 355 183 355 202 304 180 323 134C335 110 295 91 294 148 294 162 263 143 253 137ZM317 182 340 134 355 137C363 126 374 122 369 144L361 146 358 172 346 176 346 196Z"
  />
  <path
    fill-rule="evenodd"
    d="M16 182 293 170 356 200 422 205V176L411 181 386 163 400 131 432 129C500 160 505 214 487 254L449 290 369 298 300 291 321 300 310 368 272 462 21 428 249 403 97 384 230 350 35 304 175 282 68 254 183 230ZM247 191H309L347 209 429 215C475 209 462 271 440 274L363 282 267 273 251 287H270C225 399 185 270 199 252Z"
  />
</svg>
