<svg
  xmlns="http://www.w3.org/2000/svg"
  width="512"
  height="512"
  viewBox="0 0 512 512"
  fill="#ffffff"
  stroke="none"
  class="r6data__operator r6data__operator__ability r6data__operator__ability__pulse r6data__operator__ability__heartbeat_sensor"
  id="heartbeat_sensor"
>
  <path
    fill-rule="evenodd"
    d="M16 63q0-25 25-25H408V320q0 45 45 45H496V425H16ZM52 86q0-12 12-12h296q12 0 12 12v260q0 12-12 12h-296q-12 0-12-12Z"
  />
  <path d="M424 38H466l30 30V349H449q-25 0-25-25Z" />
  <path d="M16 441H496V474H16Z" />
  <path
    d="M266 144C275 127 293 121 308 121 322 121 346 132 346 162 346 202 296 229 266 261 236 229 186 202 186 162 186 132 210 121 224 121 239 121 257 127 266 144"
  />
</svg>
