<svg
  xmlns="http://www.w3.org/2000/svg"
  width="512"
  height="512"
  viewBox="0 0 512 512"
  fill="#ffffff"
  stroke="none"
  class="r6data__operator r6data__operator__ability r6data__operator__ability__flores r6data__operator__ability__rce-ratero_charge"
  id="rce-ratero_charge"
>
  <defs>
    <mask id="mask-1">
      <rect fill="white" x="0" y="0" width="512" height="512" />
      <path
        fill="black"
        d="M16 284C34 247 77 261 109 283 55 260 34 267 16 300ZM16 315C39 294 79 304 113 317 86 317 16 313 17 339ZM16 394C34 431 77 417 109 395 55 418 34 411 16 378ZM16 363C39 384 79 374 113 361 86 361 16 365 17 339Z"
      />
    </mask>
    <mask id="mask-2">
      <rect fill="white" x="0" y="0" width="512" height="512" />
      <path
        fill="black"
        id="mask-2-left"
        d="M203 377C225 381 228 373 228 369 228 360 221 356 221 349 221 341 229 336 236 336 243 336 246 339 247 340L244 343C243 342 243 340 236 340 231 340 225 343 225 349 225 354 232 358 232 369 232 375 228 386 203 381Z"
      />
      <use href="#mask-2-left" transform="translate(512) scale(-1 1)" />
    </mask>
  </defs>
  <path
    d="M185 281l-44-64 43 22-30-81 43 41-11-114 55 94 3-49 17 41 24-97 3 111 22-33-2 41 63-50-46 107 39-14-28 32 14 13h-39l12-16-23 8 14-51-36 28-2-45-11 30-8-18-4 26-26-42 0 56-26-22 9 46Z"
  />
  <g id="left">
    <path
      mask="url(#mask-1)"
      d="M17 339C17 301 7 241 57 241 83 241 127 269 149 288 133 284 131 323 131 339 131 355 133 394 139 398 127 409 83 437 57 437 7 437 17 377 17 339Z"
    />
    <path d="M174 298v100h-19c-12-10-12-90 0-100Z" />
    <path d="M192 298q4 0 4 4V394q0 4-4 4H180V298Z" />
  </g>
  <use href="#left" transform="translate(512) scale(-1 1)" />
  <path
    fill-rule="evenodd"
    d="M264 280C271 280 277 287 277 296 277 303 277 309 274 312h6C269 329 244 329 232 312h6C235 309 235 303 235 296 235 287 241 280 248 280M246 298a1 1 0 0020 0 1 1 0 00-20 0"
  />
  <path
    mask="url(#mask-2)"
    fill-rule="evenodd"
    d="M219 312C234 344 278 344 293 312H304q4 0 4 4V394q0 4-4 4H208q-4 0-4-4V312ZM244 339H268V375q0 4-4 4H248q-4 0-4-4ZM260 350q2 0 2 2V366q0 2-2 2H252q-2 0-2-2V352q0-2 2-2Z"
  />
</svg>
