<svg
  xmlns="http://www.w3.org/2000/svg"
  width="512"
  height="512"
  viewBox="0 0 512 512"
  fill="#ffffff"
  stroke="none"
  class="r6data__operator r6data__operator__ability r6data__operator__ability__rook r6data__operator__ability__armor_pack"
  id="armor_pack"
>
  <path fill-rule="evenodd" d="M16 85q0-25 25-25H180C224 31 316 31 370 60H471q25 0 25 25V409q0 10-8 16l-34 25q-8 6-13 6h-101C311 480 229 480 200 456h-129q-7 0-13-6l-34-25Q16 419 16 409ZM32 85q0-9 9-9H471q9 0 9 9V409q0 9-9 9H41q-9 0-9-9ZM222 60C259 47 291 47 328 60ZM204 434C247 444 293 444 336 434 299 467 241 467 204 434" />
  <path fill-rule="evenodd" d="M48 147l55-55H268l13 38 158-14 5 26A86 86 0 00444 312l-5 26-158-14-13 38H103l-55-55ZM107 138q0-2 2-2h8q2 0 2 2v178q0 2-2 2h-8q-2 0-2-2Zm36 0q0-2 2-2h8q2 0 2 2v178q0 2-2 2h-8q-2 0-2-2Zm36 0q0-2 2-2h8q2 0 2 2v178q0 2-2 2h-8q-2 0-2-2Z" />
  <path d="M48 329 97 378H276L290 340l146 13L431 379l-137-12L281 402H98L48 352Z" />
</svg>
