<svg
  xmlns="http://www.w3.org/2000/svg"
  width="512"
  height="512"
  viewBox="0 0 512 512"
  fill="#ffffff"
  stroke="none"
  class="r6data__operator r6data__operator__ability r6data__operator__ability__sledge r6data__operator__ability__tactical_breaching_hammer"
  id="tactical_breaching_hammer"
>
  <defs>
    <mask id="mask">
      <rect fill="white" x="0" y="0" width="512" height="512" />
      <path fill="black" d="M346 131l45-22-38 35Z" />
    </mask>
  </defs>
  <g transform="rotate(20 192 179)">
    <path d="M123 110h138v138h-138Z" />
    <path id="left" fill-rule="evenodd" d="M58 133l49-23v138l-49-23Zm12 10 22-11v21l-9 4v-14l-13 4Zm0 34 22-6v21l-7 1-2-12h-13Zm0 33 22 1v19l-9-3-2-10-11-3Z" />
    <use href="#left" transform="translate(384) scale(-1 1)" />
    <path d="M151 272h82v24h-82Zm11 40h60v26l-60 11Zm0 53 60-13v32l-60 1Zm0 36 60 7-60 25Zm0 48 60-21 0 40Z" />
  </g>
  <path mask="url(#mask)" d="M227 69c237-53 237 309 0 256 188-11 188-245 0-256m40-4 28-49 14 54zm52 0 26-28-5 37zm45 34 87-32-61 69zm39 103 61 29-67 9zm-9 47 65 68-89-28zm-17 60 37 63-63-44zm-48 10 2 36-27-28zm-25 8-18 51-20-48z" />
</svg>
