<svg
  xmlns="http://www.w3.org/2000/svg"
  width="512"
  height="512"
  viewBox="0 0 512 512"
  fill="#ffffff"
  stroke="none"
  class="r6data__ability r6data__ability__smoke r6data__ability__remote_gas_grenade"
  id="remote_gas_grenade"
>
  <path fill-rule="evenodd" d="M146 90C105 81 90 115 60 130 83 57 161 43 195 50 254-22 400 39 395 77 394 83 384 86 374 86 365 86 361 76 349 66 370 128 412 69 456 106 481 126 471 169 472 173 513 203 490 241 478 247 537 324 434 351 420 314 426 337 435 343 451 341 471 370 439 412 415 417 412 463 348 482 312 478 255 509 197 496 159 459 105 464 91 427 84 411 77 393 17 396 43 327 58 334 78 337 91 334 65 327-8 298 24 220-7 162 66 146 79 137 91 129 120 96 146 90M300 107C331 139 363 114 380 148 361 130 311 157 300 107M151 225C144 213 140 204 139 183 163 232 189 214 224 235 222 201 106 200 206 142 291 93 248 166 292 165 323 165 336 161 344 166 377 186 371 236 371 254 371 265 398 271 403 283 383 274 375 273 367 273 358 301 354 320 356 344 318 374 293 365 280 379 287 380 304 377 316 382V427l-18-18-18 18-18-18-18 18-18-18-18 18V369L168 344C168 291 153 286 151 225M189 273 242 300C250 353 175 349 189 273M334 273 281 300C273 353 348 349 334 273" />
</svg>
