<svg
  xmlns="http://www.w3.org/2000/svg"
  width="512"
  height="512"
  viewBox="0 0 512 512"
  fill="#ffffff"
  stroke="none"
  class="r6data__operator r6data__operator__ability r6data__operator__ability__solis r6data__operator__ability__spec-io_electro-sensor"
  id="spec-io_electro-sensor"
>
  <defs>
    <mask id="mask">
      <rect fill="white" x="0" y="0" width="512" height="512" />
      <path
        fill="black"
        d="M100 342C90 323 96 267 104 256 120 251 156 245 180 244Z"
      />
      <path fill="black" d="M241 270h31l-91 113h-31Z" />
      <path fill="black" d="M333 244l29 3-94 117c-12-1-24-1-35 4Z" />
      <path
        fill="black"
        d="M377 250 406 255C413 257 417 285 417 301V330C417 349 386 384 360 384H320C307 384 294 372 283 368Z"
      />
    </mask>
  </defs>
  <path
    id="ear"
    d="M27 102 44 94 71 208C42 232 39 300 48 350 27 312 5 275 23 242L37 238 21 218 20 158Z"
  />
  <use href="#ear" transform="translate(512) scale(-1 1)" />
  <path
    mask="url(#mask)"
    fill-rule="evenodd"
    d="M427 222C434 223 453 258 453 295v32C453 363 411 419 363 419h-46C288 419 279 399 256 399 233 399 224 419 195 419H149C101 419 59 363 59 327V295C59 258 78 223 85 222 230 199 282 199 427 222M287 219C291 219 294 225 291 228l-21 20H242l-21-20C218 225 221 219 225 219ZM419 235c6 1 19 32 19 66v29c0 32-40 74-77 75h-41c-26 0-34-20-64-20-30 0-38 20-64 20h-41c-37-1-77-43-77-75v-29c0-34 13-65 19-66C126 229 161 224 195 222L236 262H276L317 222C351 224 386 229 419 235M231 272C238 279 274 279 281 272L319 233C352 235 382 240 414 246 421 248 427 281 427 301V330C427 359 387 393 360 394H320C299 394 286 373 256 373 226 373 213 394 192 394H152C125 393 85 359 85 330V301C85 281 91 248 98 246 130 240 160 235 193 233Z"
  />
</svg>
