<svg
  xmlns="http://www.w3.org/2000/svg"
  width="512"
  height="512"
  viewBox="0 0 512 512"
  fill="#ffffff"
  stroke="none"
  class="r6data__operator r6data__operator__ability r6data__operator__ability__tachanka r6data__operator__ability__shumikha_launcher"
  id="shumikha_launcher"
>
  <path fill-rule="evenodd" d="M147 139C173 155 206 227 213 216 280 122 157 127 256 22 210 129 399 100 362 289 389 263 396 243 397 213 515 419 338 490 256 490 174 490 91 435 91 379 91 286 169 258 147 139M207 297v-24q6-21 22-32H283q16 11 22 32V297ZM207 313H305V427H207ZM207 457V445Q207 443 209 443H303Q305 443 305 445V457Q305 459 303 459H209Q207 459 207 457" />
  <path d="M179 41C175 67 178 79 194 87 171 112 134 62 179 41" />
  <path d="M326 38C372 45 382 99 333 116 342 81 340 68 326 38" />
  <path d="M53 320C40 248 72 207 126 165 106 213 106 224 113 267 101 292 67 336 78 397 43 391 26 362 31 324 28 326 25 328 20 329 11 307 23 293 28 285 34 309 43 315 53 320" />
  <path d="M406 200C414 179 417 164 423 145 428 162 427 179 422 200 431 215 439 227 448 248 455 234 458 225 460 205 506 271 508 327 450 371 460 315 438 246 406 200" />
</svg>
