<svg
  xmlns="http://www.w3.org/2000/svg"
  width="512"
  height="512"
  viewBox="0 0 512 512"
  fill="#ffffff"
  stroke="none"
  class="r6data__operator r6data__operator__ability r6data__operator__ability__thorn r6data__operator__ability__razorbloom_shell"
  id="razorbloom_shell"
>
  <path
    d="M162 53 122 68 111 166 166 316 266 442 325 475 376 471 407 392 397 348 417 394 385 490 322 496 250 455 151 323 95 166 111 67Z"
  />
  <path
    d="M214 82 194 77 159 93 150 161 201 297 290 410 338 438 357 435 377 392 363 277 370 295 393 393 367 458 329 462 275 432 180 312 125 166 137 78 178 62Z"
  />
  <path
    fill-rule="evenodd"
    d="M233 31l10-11c10-5 30-5 40 0l10 11v38l-11 12h-38l-11-12ZM239 50a1 1.15 0 0048 0 1 1.15 0 00-48 0"
  />
  <path d="M242 99l8-6H276l8 6V104H242Z" />
  <path d="M220 109H239V139H220Z" />
  <path d="M245 109H306V139H245Z" />
  <path d="M220 149q0-4 4-4H302q4 0 4 4V151q0 4-4 4H224q-4 0-4-4Z" />
  <path
    d="M203 194 221 171 230 177 225 199 206 214Q201 210 194 212M231 199 235 176 249 164 261 177V200L245 210ZM266 177 278 164 294 177 298 199 284 211 266 200ZM299 177 308 171 325 193 335 212Q328 211 323 214L304 200ZM205 241 208 219 226 206 241 216 240 239 222 250ZM247 238 248 217 264 207 281 217 282 238 264 249ZM288 217 302 206 320 219 323 240 307 250 289 238ZM225 257 243 245 261 256V283L244 295 225 282ZM268 256 285 245 304 257V281L286 294 268 282ZM311 256 327 247 334 252 346 274V277L328 290 311 281ZM248 322V302L265 290 282 302 281 325 264 336 251 327M289 302 307 288 323 298 320 320 302 334 288 325ZM267 347V343L284 331 298 341 294 366 289 371ZM304 341 323 324Q328 327 335 326L326 344 308 368 300 364Z"
  />
</svg>
