<svg
  xmlns="http://www.w3.org/2000/svg"
  width="512"
  height="512"
  viewBox="0 0 512 512"
  fill="#ffffff"
  stroke="none"
  class="r6data__operator r6data__operator__ability r6data__operator__ability__gridlock r6data__operator__ability__trax_stingers"
  id="trax_stingers"
>
  <defs>
    <mask id="mask">
      <rect fill="white" x="0" y="0" width="512" height="512" />
      <path fill="black" d="M205 123l51-31 51 31Z" />
    </mask>
  </defs>
  <g id="part">
    <path mask="url(#mask)" d="M158 87H354v24H158Z" />
    <path d="M252 88l4-36L260 88Z" />
    <path d="M344 88 383 35 352 108Z" />
    <path d="M205 140l51-31 51 31-5 8-46-27-46 27Z" />
    <path transform="rotate(30 256 256)" d="M247 175l9-70 9 70" />
  </g>
  <use href="#part" transform="rotate(60 256 256)" />
  <use href="#part" transform="rotate(120 256 256)" />
  <use href="#part" transform="rotate(180 256 256)" />
  <use href="#part" transform="rotate(240 256 256)" />
  <use href="#part" transform="rotate(300 256 256)" />
  <path d="M282 256l-13 22.5167-26 0-13-22.5167 13-22.5167 26 0Z" />
  <path
    fill-rule="evenodd"
    d="M256 162l81.4064 47 0 94-81.4064 47-81.4064-47 0-94ZM256 184l62.3538 36 0 72-62.3538 36-62.3538-36 0-72Z"
  />
</svg>
