<svg
  xmlns="http://www.w3.org/2000/svg"
  width="512"
  height="512"
  viewBox="0 0 512 512"
  fill="#ffffff"
  stroke="none"
  class="r6data__operator r6data__operator__ability r6data__operator__ability__twitch r6data__operator__ability__shock_drones"
  id="shock_drones"
>
  <defs>
    <mask id="mask">
      <rect fill="white" x="0" y="0" width="512" height="512" />
      <path fill="black" d="M222 268a1 1 0 0068 0 1 1 0 00-68 0" />
    </mask>
  </defs>
  <g mask="url(#mask)">
    <path d="M190 268a1 1 0 00132 0 1 1 0 00-132 0" />
    <path d="M256 48 281 207 316 295l150 169-113-99 44 61-113-99L228 327l-113 99 44-61-113 99 150-169L231 207Z" />
  </g>
  <path d="M228 345c20 7 36 7 56 0l22 22h-100Z" />
  <g id="left">
    <path d="M120 180l14-23h88v24Z" />
    <path d="M120 196h24v131l-24 23Z" />
    <path d="M160 196H217C187 212 164 249 178 293L160 310Z" />
  </g>
  <use href="#left" transform="translate(512) scale(-1 1)" />
  <path id="wheel" d="M16 239C15 219 42 208 63 218ZM16 255l65-30q16-8 26 10V243l-91 42ZM16 331v16M16 301l91-41v29l-91 42M16 347l91-41v29l-91 42M39 383 107 352Q107 383 90 383Z" />
  <use href="#wheel" transform="translate(512) scale(-1 1)" />
</svg>
