<svg
  xmlns="http://www.w3.org/2000/svg"
  width="512"
  height="512"
  viewBox="0 0 512 512"
  fill="#ffffff"
  stroke="none"
  class="r6data__operator r6data__operator__ability r6data__operator__ability__vigil r6data__operator__ability__erc-7"
  id="erc-7"
>
  <defs>
    <clipPath id="clip-path-1">
      <path d="M94 256a1 1 0 00324 0 1 1 0 00-324 0" />
    </clipPath>
    <clipPath id="clip-path-2">
      <path d="M16 16H496V93H16Z" />
    </clipPath>
    <clipPath id="clip-path-3">
      <path d="M16 93H496V134H16Z" />
    </clipPath>
    <clipPath id="clip-path-4">
      <path d="M16 133H382L418 188H16" />
    </clipPath>
    <clipPath id="clip-path-5">
      <path d="M382 133H496V188H418Z" />
    </clipPath>
    <clipPath id="clip-path-6">
      <path d="M16 187H496V262H16Z" />
    </clipPath>
    <clipPath id="clip-path-7">
      <path d="M16 262H254V313H16Z" />
    </clipPath>
    <clipPath id="clip-path-8">
      <path d="M254 261H496V313H254Z" />
    </clipPath>
    <clipPath id="clip-path-9">
      <path d="M16 313H241L279 355H496V496H16Z" />
    </clipPath>
    <clipPath id="clip-path-10">
      <path d="M321 313H496V355H321Z" />
    </clipPath>
    <g id="shape">
      <path
        fill-rule="evenodd"
        d="M46 256a1 1 0 00420 0A1 1 0 0046 256M70 256a1 1 0 00372 0 1 1 0 00-372 0"
      />
      <path
        id="blade"
        clip-path="url(#clip-path-1)"
        d="M177 111 252 199 95 229 107 148Z"
      />
      <use href="#blade" transform="rotate(60 256 256)" />
      <use href="#blade" transform="rotate(120 256 256)" />
      <use href="#blade" transform="rotate(180 256 256)" />
      <use href="#blade" transform="rotate(240 256 256)" />
      <use href="#blade" transform="rotate(300 256 256)" />
    </g>
  </defs>
  <use href="#shape" clip-path="url(#clip-path-2)" transform="translate(43)" />
  <use href="#shape" clip-path="url(#clip-path-3)" />
  <use href="#shape" clip-path="url(#clip-path-4)" />
  <use
    href="#shape"
    clip-path="url(#clip-path-5)"
    transform="translate(512) scale(-1 1) translate(43 -10)"
  />
  <use href="#shape" clip-path="url(#clip-path-6)" />
  <use href="#shape" clip-path="url(#clip-path-7)" transform="translate(-24)" />
  <use href="#shape" clip-path="url(#clip-path-8)" />
  <use href="#shape" clip-path="url(#clip-path-9)" />
  <use href="#shape" clip-path="url(#clip-path-10)" transform="translate(24)" />
</svg>
