<svg
  xmlns="http://www.w3.org/2000/svg"
  width="512"
  height="512"
  viewBox="0 0 512 512"
  fill="#ffffff"
  stroke="none"
  class="r6data__operator r6data__operator__ability r6data__operator__ability__wamai r6data__operator__ability__mag-net_system"
  id="mag-net_system"
>
  <defs>
    <mask id="mask-1">
      <rect fill="white" x="0" y="0" width="512" height="512" />
      <path
        id="mask-1-top"
        fill="black"
        d="M0 214 256 146 512 214V242L256 174 0 242Z"
      />
      <use href="#mask-1-top" transform="rotate(180 256 256)" />
      <path id="mask-1-left" fill="black" d="M32 245h22v22h-22Z" />
      <use href="#mask-1-left" transform="rotate(180 256 256)" />
    </mask>
    <mask id="mask-2">
      <rect fill="white" x="0" y="0" width="512" height="512" />
      <path
        id="mask-2-circle"
        fill="black"
        d="M110 256a1 1 0 0036 0 1 1 0 00-36 0"
      />
      <use href="#mask-2-circle" transform="rotate(45 256 256)" />
      <use href="#mask-2-circle" transform="rotate(90 256 256)" />
      <use href="#mask-2-circle" transform="rotate(135 256 256)" />
      <use href="#mask-2-circle" transform="rotate(180 256 256)" />
      <use href="#mask-2-circle" transform="rotate(225 256 256)" />
      <use href="#mask-2-circle" transform="rotate(270 256 256)" />
      <use href="#mask-2-circle" transform="rotate(315 256 256)" />
    </mask>
  </defs>
  <path
    fill-rule="evenodd"
    mask="url(#mask-1)"
    d="M16 256a1 1 0 00480 0 1 1 0 00-480 0M68 256a1 1 0 00376 0 1 1 0 00-376 0"
  />
  <path
    fill-rule="evenodd"
    mask="url(#mask-2)"
    d="M94 256a1 1 0 00324 0 1 1 0 00-324 0M154 256a1 1 0 00204 0 1 1 0 00-204 0"
  />
  <path
    id="middle"
    transform="rotate(-22.4 256 256)"
    d="M228 184c19-7 39-7 58 0l-9 30h-40Z"
  />
  <use href="#middle" transform="rotate(120 256 256)" />
  <use href="#middle" transform="rotate(240 256 256)" />
</svg>
