<svg
  xmlns="http://www.w3.org/2000/svg"
  width="512"
  height="512"
  viewBox="0 0 512 512"
  fill="#ffffff"
  stroke="none"
  class="r6data__operator r6data__operator__ability r6data__operator__ability__ying r6data__operator__ability__candela"
  id="candela"
>
  <defs>
    <mask id="mask-1">
      <rect fill="white" x="0" y="0" width="512" height="512" />
      <path fill="black" d="M186 238 187 254 165 248Z" />
    </mask>
    <mask id="mask-2">
      <rect fill="white" x="0" y="0" width="512" height="512" />
      <path fill="black" d="M270 211l25-48L332 192l-7 41Z" />
      <path fill="black" d="M320 231 364 213 344 251Z" />
    </mask>
  </defs>
  <g>
    <path
      fill-rule="evenodd"
      mask="url(#mask-1)"
      d="M100 208a1 1 0 00122 0 1 1 0 00-122 0M120 208a1 1 0 0082 0 1 1 0 00-82 0"
    />
    <rect
      x="155"
      y="202"
      width="12"
      height="12"
      transform="rotate(45 161 208)"
    />
    <path
      d="M44 222 109 204 135 210 110 224ZM110 176 92 141 129 157ZM151 149 161 114 171 149ZM170 158 202 106 190 166 174 176ZM212 176 248 170 220 194ZM220 194 254 202 221 217ZM185 224 212 228 231 254 200 246ZM160 268 144 301 137 264ZM126 257 98 270 112 243Z"
    />
  </g>
  <g>
    <path
      fill-rule="evenodd"
      mask="url(#mask-2)"
      d="M268 154a1 1 0 00154 0 1 1 0 00-154 0M300 154a1 1 0 0090 0 1 1 0 00-90 0"
    />
    <rect
      x="337"
      y="146"
      width="16"
      height="16"
      transform="rotate(45 345 154)"
    />
    <path
      mask="url(#mask-2)"
      d="M270 170 237 163 269 147ZM286 132 225 74 303 111 319 138ZM288 103 278 81 298 94ZM328 80 337 42 353 78ZM352 96 392 16 375 100 355 123ZM388 91 423 70 406 108ZM394 118 470 96 403 144 378 140ZM420 166 460 193 411 193ZM411 193 438 231 395 212ZM387 218 393 251 374 224ZM370 212 379 282 347 218 352 185Z"
    />
  </g>
  <g>
    <path
      fill-rule="evenodd"
      d="M164 326a1 1 0 00186 0 1 1 0 00-186 0M200 326a1 1 0 00114 0 1 1 0 00-114 0"
    />
    <rect
      x="245"
      y="314"
      width="24"
      height="24"
      transform="rotate(45 257 326)"
    />
    <path
      d="M187 293 147 251 203 265 228 303ZM237 236 249 187 269 235ZM269 252 315 164 299 261 275 286ZM309 250 333 240 328 267ZM321 279 404 252 331 305 298 304ZM348 336 397 367 339 366ZM339 368 368 412 320 393ZM307 403 324 452 296 409ZM288 395 303 494 264 401 268 355ZM261 418 251 437 244 417ZM192 391 145 410 175 369ZM190 359 91 378 180 334 223 335ZM166 339 129 330 166 314Z"
    />
  </g>
</svg>
