<svg
  xmlns="http://www.w3.org/2000/svg"
  width="200"
  height="200"
  viewBox="0 0 200 200"
  fill="none"
  stroke="#ffffff"
  class="r6data__gadget r6data__gadget__detailed r6data__gadget__detailed__barbed_wire_legacy"
  id="barbed_wire_legacy"
>
  <path
    fill="#000000"
    d="M11 119C13 49 188 61 189 133M189 133C187 203 12 191 11 119M49 119C42 160 148 180 154 133M154 133C161 92 55 72 49 119"
  />
  <path
    fill="#000000"
    d="M49 66C55 19 161 39 154 80M154 80C148 127 42 107 49 66M49 119C42 160 148 180 154 133M154 133C161 92 55 72 49 119"
  />
  <path fill="#000000" d="M27 99C-15 181 217 198 172 110L106 118Z" />
  <path
    stroke-width="0.5"
    d="M154 89C161 48 55 28 49 75M154 96C161 55 55 35 49 82M154 103C161 62 55 42 49 89M154 113C161 72 55 52 49 99M153 120C161 80 55 60 49 107M148 121C161 87 55 67 49 113"
  />
  <path fill="#000000" d="M92 105V70H107V107" />
  <path
    fill="#000000"
    d="M24.67 150.184 18 153 14 157 21 163 28 162 35.544 159.207Q28.65 154.395 24.669 150.183"
  />
  <path
    fill="#000000"
    d="M181.722 109.795 189 106 182.732 99.69 177.574 104.247Q180.089 107.031 181.722 109.795"
  />
  <path
    stroke-width="0.5"
    d="M26.626 99.007C52 141 157 143 174.251 108.93M25.738 101.71C39 148 163 155 174.961 116.689M24.076 105.852C34 151 155 166 176.496 121.476M22.854 110.203C36 163 168 171 177.044 123.959M21.938 117.057C38 175 169 175 177.677 133.035"
  />
  <path
    fill="#000000"
    d="M11 66C13-4 188 8 189 80M189 80C187 150 12 138 11 66M49 66C42 107 148 127 154 80M154 80C161 39 55 19 49 66"
  />
  <path
    fill="#000000"
    d="M28.132 35.093 59.339 47.869V78H54V53.302L22.269 40.102Q24.713 37.617 28.132 35.093"
  />
  <path
    fill="#000000"
    d="M90.51 19.321 93.571 38.812V68H84V39.186L80.598 19.499Q85.624 19.241 90.51 19.318"
  />
  <path
    fill="#000000"
    d="M16 90 170 38 175 38 182 44 179 46 24 100 17 100 11 94 16 90Z"
  />
  <path fill="#000000" d="M87 68C89 79 110 78 111 69 113 55 86 58 87 68" />
  <path d="M92 68C93 74 106 74 107 68 108 61 91 61 92 68" />
  <path
    fill="#000000"
    stroke-width="0.5"
    d="M67 68 119 50 121 52 69 70 67 68Z"
  />
  <path stroke-width="0.5" d="M68 69 66 70 79 85M120 51 122 50 137 65" />
</svg>
