<svg
  xmlns="http://www.w3.org/2000/svg"
  width="200"
  height="200"
  viewBox="0 0 200 200"
  fill="none"
  stroke="#ffffff"
  class="r6data__gadget r6data__gadget__detailed r6data__gadget__detailed__breach_charge"
  id="breach_charge"
>
  <path
    fill="#000000"
    d="M100 10C125 11 125 11 125 19L125 24C124 35 155 26 157 46L157 95 154 97 157 99 157 104 154 106 157 108 157 157C157 177 137 162 136 175L136 179C136 191 130 190 100 190 70 190 64 191 64 179L64 175C63 162 43 177 43 157L43 108 46 106 43 104 43 99 46 97 43 95 43 46C45 26 76 35 75 24L75 19C75 11 75 11 100 10M83 19A1 1 0 0083 24 1 1 0 0083 19M116 19A1 1 0 00116 24 1 1 0 00116 19M74 178A1 1 0 0074 183 1 1 0 0074 178M126 178A1 1 0 00126 183 1 1 0 00126 178M78 93.5 74 90 70 93.5 74 97ZM78 104.5 74 101 70 104.5 74 108ZM130 93.5 126 90 122 93.5 126 97ZM130 104.5 126 101 122 104.5 126 108Z"
  />
  <path
    d="M83 17A1 1 0 0183 26 1 1 0 0183 17M116 17A1 1 0 01116 26 1 1 0 01116 17M74 176A1 1 0 0174 185 1 1 0 0174 176M126 176A1 1 0 01126 185 1 1 0 01126 176"
  />
  <path
    d="M83 30H117Q120 30 120 33V85Q120 88 117 88H83Q80 88 80 85L80 33Q80 30 83 30"
  />
  <path
    id="hand"
    stroke-width="0.5"
    d="M100 81H98C95 81 90.8 71 90.6 68.1Q90.3 64.3 92.7 67.4L95.5 74 95.6 61Q95.6 60 96 60L97 60Q97.5 60 97.5 61L97.5 68.5 98.5 68.5 98.6 58Q98.6 57 99 57L100 57Q100.5 57 100.5 58L100.5 69.5 101.5 69.5 101.6 60Q101.6 59 102 59L103 59Q103.5 59 103.5 60L103.5 70 104.5 70 104.5 63Q104.5 62 105 62L106 62Q106.5 62 106.5 63L106.5 76.5Q106.5 81 103 81Z"
  />
  <path
    d="M83 110H117Q120 110 120 113V145Q120 148 117 148H83Q80 148 80 145L80 113Q80 110 83 110"
  />
  <use href="#hand" transform="translate(0, 59.5)" />
  <path d="M100 94A1 1 0 00100 103 1 1 0 00100 94M93 98.5H107" />
  <path
    stroke-width="0.5"
    d="M135 35Q147 37 147 46 153 98 148 148 148 166 135 166 103 164 65 166 53 165 52 148 47 98 53 46 55 35 65 35 100 33 135 35M134 37Q145.6424 38.9404 145.6424 47.6722 151.4636 98.1226 146.6126 146.6326 146.6126 164.0962 134 164.0962 102.9536 162.1558 66.086 164.0962 54.4436 163.126 53.4734 146.6326 48.6224 98.1226 54.4436 47.6722 56.384 37 66.086 37 100.043 35.0596 134 37M132 40Q143.088 41.848 143.088 50.164 148.632 98.212 144.012 144.412 144.012 161.044 132 161.044 102.432 159.196 67.32 161.044 56.232 160.12 55.308 144.412 50.688 98.212 56.232 50.164 58.08 40 67.32 40 99.66 38.152 132 40M131 43Q141.56 44.76 141.56 52.68 146.84 98.44 142.44 142.44 142.44 158.28 131 158.28 102.84 156.52 69.4 158.28 58.84 157.4 57.96 142.44 53.56 98.44 58.84 52.68 60.6 43 69.4 43 100.2 41.24 131 43"
  />
</svg>
