<svg
  xmlns="http://www.w3.org/2000/svg"
  width="200"
  height="200"
  viewBox="0 0 200 200"
  fill="none"
  stroke="#ffffff"
  class="r6data__gadget r6data__gadget__detailed r6data__gadget__detailed__bulletproof_camera"
  id="bulletproof_camera"
>
  <path fill="#000000" d="M171 42V38H183L189 44V154L183 160H171V156H29V160H17L11 154V44L17 38H29V42Z" />
  <rect x="23" y="45" width="154" height="107" rx="1" />
  <g stroke-width="0.5">
    <path d="M48 68 48 58Q48 52 54 52H147Q153 52 153 58V68M48 130 48 140Q48 146 54 146H147Q153 146 153 140V130" />
   <path d="M153 60H167Q173 61 174 67V131Q173 138 167 138H153M48 59H34Q28 60 27 66V130Q28 136 34 137H48" />
  </g>
  <path d="M150 68H161L168 75V123L161 130H150L143 123H57L50 130H39L32 123V75L39 68H50L57 75H143Z" />
  <ellipse cx="100" cy="99" rx="18" />
  <ellipse fill="#ffffff" cx="93" cy="93" rx="5" />
  <g stroke-width="0.5">
    <ellipse cx="100" cy="134.5" rx="7" />
    <path d="M16 56H18L19 57V59L18 60H16L15 59V57ZM16 138H18L19 139V141L18 142H16L15 141V139ZM182 56H184L185 57V59L184 60H182L181 59V57ZM182 138H184L185 139V141L184 142H182L181 141V139Z" />
    <path d="M15 67H19V75H15ZM181 67H185V75H181Z" />
    <path d="M162 77 159 74 154 79 157 82ZM163 88 159 91V107L163 110ZM157 116 154 119 159 124 162 121ZM38 77 41 74 46 79 43 82ZM37 88 41 91V107L37 110ZM43 116 46 119 41 124 38 121Z" />
  </g>
</svg>
