<svg
  xmlns="http://www.w3.org/2000/svg"
  width="200"
  height="200"
  viewBox="0 0 200 200"
  fill="none"
  stroke="#ffffff"
  class="r6data__gadget r6data__gadget__detailed r6data__gadget__detailed__deployable_shield"
  id="deployable_shield"
>
  <path fill="#000000" d="M31 12 100 18 169 12V183L100 189 31 183ZM80 31 60 51 66 57 86 37ZM36 58 36 65 57 65 57 58ZM65 61 59 67 79 87 85 81ZM114 37 134 57 140 51 120 31ZM143 58 143 65 164 65 164 58ZM115 81 121 87 141 67 135 61ZM80 97 60 117 66 123 86 103ZM114 103 134 123 140 117 120 97ZM36 128 36 135 57 135 57 128ZM65 131 59 137 79 157 85 151ZM143 128 143 135 164 135 164 128ZM115 151 121 157 141 137 135 131Z" />
  <path d="M100 18V189M31 20 100 26 169 20M31 88 100 94 169 88M31 123 100 128 169 122M31 157 100 162 169 156" />
  <path id="side" fill="#000000" d="M26 12 31 12V84H26ZM26 84H31V118H26ZM26 118H31V139H26ZM26 139H31V183H26Z" />
  <use href="#side" transform="translate(143)" />
  <path id="side-lines" d="M28.5 84V51M28.5 118V88M28.5 139V122" />
  <use href="#side-lines" transform="translate(143)" />
</svg>
