<svg
  xmlns="http://www.w3.org/2000/svg"
  width="200"
  height="200"
  viewBox="0 0 200 200"
  fill="none"
  stroke="#ffffff"
  class="r6data__gadget r6data__gadget__detailed r6data__gadget__detailed__frag_grenade"
  id="frag_grenade"
>
  <path
    fill="#000000"
    d="M57 21A1 1 0 0057 88 1 1 0 0057 21M57 27A1 1 0 0157 82 1 1 0 0157 27"
  />
  <path
    fill="#000000"
    d="M89 80 89 66Q89 60 94 60L123 60Q127 60 127 66L127 80"
  />
  <path
    fill="#000000"
    d="M127 80C193 80 193 175 119 189Q108 191 97 189C23 175 31 80 89 80Z"
  />
  <path
    fill="#000000"
    d="M128 12 128 60 75 60 73 64 72 64A1 1 0 0072 67L70 71 63 71 84 32 78 24 83 12Z"
  />
  <path
    fill="#000000"
    d="M122 12 122 16 121 17 100 17 90 20Q89 20 88 19C85 16 83 18 85 21 88 25 89 29 86 36L43 109Q42 111 42 113L42 170 40 173 40 186 37 186 37 111Q37 109 38 107L71 17Q73 13 78 12Z"
  />
  <path fill="#000000" d="M128 12H137A1 1 0 00141 20L132 35V60H128Z" />
  <path fill="#000000" d="M137 12A1 1 0 00141 20 1 1 0 00137 12" />
  <path d="M122 12H130Q133 12 133 15C133 24.5 145 24.5 145 15" />
  <g stroke-width="0.5">
    <path d="M43.5 131Q109 173 175.5 131" />
    <path d="M94 60C99 47 118 47 123 60" />
    <ellipse cx="80" cy="30" rx="1.5" />
  </g>
</svg>
