<svg
  xmlns="http://www.w3.org/2000/svg"
  width="200"
  height="200"
  viewBox="0 0 200 200"
  fill="none"
  stroke="#ffffff"
>
  <path
    stroke-width="2"
    d="M182 17Q189 17 189 24V176Q189 183 182 183H18Q11 183 11 176V24Q11 17 18 17Z"
  />
  <path
    fill="#000000"
    d="M117.5 15H164Q164 42 191 42V158Q164 158 164 185H36Q36 158 9 158V42Q36 42 36 15H95.5M95 15V32.6Q95 35.8 90 37A61.6 61.6 90 0037.2 98 1.6 1.6 90 00161 98 61.6 61.6 90 00123 41Q118.2 38.9 118 36V15"
  />
  <!-- <path stroke-width="4" d="M11 24Q11 17 18 17M182 17Q189 17 189 24M189 176Q189 183 182 183M18 183Q11 183 11 176" /> -->
  <path
    fill="#000000"
    d="M9 24Q9 15 18 15L18 19Q13 19 13 24ZM182 15Q191 15 191 24L187 24Q187 19 182 19ZM191 176Q191 185 182 185L182 181Q187 181 187 176ZM18 185Q9 185 9 176L13 176Q13 181 18 181Z"
  />
</svg>
