<svg
  xmlns="http://www.w3.org/2000/svg"
  width="200"
  height="200"
  viewBox="0 0 200 200"
  fill="none"
  stroke="#ffffff"
>
  <ellipse fill="#000000" cx="100" cy="107" rx="85" />
  <path
    fill="#000000"
    d="M68 16Q61 25 58 33C72 67 148 97 178 74Q180 67 180 56"
  />
  <path fill="#000000" d="M68 16C51 42 170 91 180 56 183 33 88-7 68 16Z" />
  <path d="M88 22C79 42 156 68 162 48 167 33 99 2 88 22Z" />
  <path d="M90 32C106 15 163 43 147 55.2" />
  <path stroke-width="0.5" d="M58 33C52 66 156 113 178 74" />
  <path d="M43 44C43 87 158 128 184 94" />
  <g stroke-width="0.5">
    <path
      d="M43.793 50.346Q9 87 17.013 125.726M45.882 56.005Q11.089 92.659 18.086 129.669M52.458 65.975Q19 95 20.954 138.252M61.146 74.536Q28 101 30.687 156.238M77.859 86.062Q47 141 47.926 174.177M90.203 92.403Q61 144 59.997 182.01M114.391 101.271Q99 159 76.284 188.631M127.367 104.345Q111.976 162.074 89.581 191.367M149 106.608Q151 163 110.997 191.296M158.976 106.056Q160.976 162.448 120.551 189.476M174.443 101.671Q178 137 160.152 167.016M179.715 98.357Q183.272 133.686 167.062 159.27"
    />
    <path
      d="M50 71C53 68 58.3 73.218 55.303 76.587L44.57 88.746C41.57 91.746 36.27 86.528 39.267 83.159Z"
    />
    <path
      d="M77 92C79.197 88.223 87 92 85 96L70 127C68 131 60.01 126.93 62 123Z"
    />
    <path
      d="M115 107C116 102 125.641 104.772 124 110L113.452 142.383C111.979 146.78 102.417 143.878 105 138Z"
    />
    <path
      d="M151 112C151 108 157.001 107.404 157.001 111.407L156 129C155.728 132.972 149.945 133.303 150.028 129.503Z"
    />
    <path d="M66 67A1 1 0 0060 62C53.695 68.62 58.942 73.491 66 67" />
    <path d="M158 98A1 1 0 00150 98C150 107 158 107 158 98" />
  </g>
</svg>
