<svg
  xmlns="http://www.w3.org/2000/svg"
  width="200"
  height="200"
  viewBox="0 0 200 200"
  fill="none"
  stroke="#ffffff"
  class="r6data__gadget r6data__gadget__detailed r6data__gadget__detailed__nitro_cell"
  id="nitro_cell"
>
  <g fill="#000000">
    <path d="M71 22H104V188H71Z" />
    <path d="M97 18H124V190H97Z" />
    <path d="M109 22H141V187H109Z" />
    <path d="M61 26H95V185H61Z" />
  </g>
  <path
    fill="#000000"
    d="M59 68 143 48V70L59 89ZM59 91 143 94V117L59 114ZM59 149 143 131V153L59 171Z"
  />
  <path
    fill="#000000"
    d="M126 31 127 12Q127 11 128 11L134 12Q134.54 12.11 134.5 13L133 48"
  />
  <path
    fill="#000000"
    d="M123 27C136 34 134 49 132 83L129 119 126 155Q125.6 159 122 159L83 156Q78.6 156 79 152L82 113 85 79C87 46 92 30 105 25Z"
  />
  <g stroke-width="0.5">
    <ellipse cx="106" cy="43" rx="9" />
    <ellipse cx="124" cy="45" rx="2.5" />
    <path d="M88 90 90 62 121 54Q123 59 130 59L128 91" />
    <path d="M93 88 95 66 125 68.4 124 86.4" />
    <g>
      <path id="key_left" d="M91 116l8 .65-.25 3-8.001-.648-.75-1.5z" />
      <use href="#key_left" transform="translate(-0.5, 5)" />
      <use href="#key_left" transform="translate(-1, 10)" />
      <use href="#key_left" transform="translate(-1.5, 15)" />
      <path
        id="key_middle"
        d="M102.04 116.9l8.873.721-.286 3.005-8.831-.726z"
      />
      <use href="#key_middle" transform="translate(-0.5, 5)" />
      <use href="#key_middle" transform="translate(-1, 10)" />
      <use href="#key_middle" transform="translate(-1.5, 15)" />
      <path id="key_right" d="M121.85 121.57l-8-.65.25-3 8 .648.75 1.5z" />
      <use href="#key_right" transform="translate(-0.5, 5)" />
      <use href="#key_right" transform="translate(-1, 10)" />
      <use href="#key_right" transform="translate(-1.5, 15)" />
      <path d="M93 144 113.063 145.5 111 149.23 95 148Z" />
    </g>
    <path fill="#000000" d="M84 79 133 83 130 117 81 113Z" />
  </g>
</svg>
