<svg
  xmlns="http://www.w3.org/2000/svg"
  width="200"
  height="200"
  viewBox="0 0 200 200"
  fill="none"
  stroke="#ffffff"
  class="r6data__gadget r6data__gadget__detailed r6data__gadget__detailed__smoke_grenade"
  id="smoke_grenade"
>
  <path
    fill="#000000"
    d="M75 9A1 1 0 0075 61 1 1 0 0075 9M75 15A1 1 0 0175 56 1 1 0 0175 15"
  />
  <path fill="#000000" d="M126 10V34H87L97 10Z" />
  <g fill="#000000">
    <path d="M126 10H130A4.03 4.03 0 00134 16L126 23Z" />
    <path d="M130 10A1 1 0 00137 14 1 1 0 00130 10" />
  </g>
  <path d="M122 10H128V12C128 19.5 139 19.5 139 12" />
  <path fill="#000000" d="M127 34V37H103V34Z" />
  <path
    fill="#000000"
    d="M151 37V41H149V187H151V191H79V187H81V41H79V37ZM81 41H149M81 187H149"
  />
  <path d="M149 129V163H145V147H85V163H81V129Z" />
  <path
    fill="#000000"
    d="M122 10V14H99V13A1 1 0 0097 15L99 16V19Q99 21 97 23L90 28 87 34 79 39Q77 40 77 42V125L75 126V129H74V39Q74 37 76 36L84 31 93 12Q94 10 96 10Z"
  />
  <ellipse stroke-width="0.5" cx="94" cy="20.5" rx="1" />
</svg>
