<svg
  xmlns="http://www.w3.org/2000/svg"
  width="500"
  height="500"
  viewBox="0 0 500 500"
  class="r6data__rank r6data__rank__v3 r6data__rank__v3__bronze_4"
  id="bronze_4"
>
  <g
    fill="none"
    stroke-width="10"
    stroke-linejoin="round"
  >
    <path stroke="#c8c8c8" d="M391 111c5.5 0 10 4.5 10 10v22c0 5.5-4.5 10-10 10h-282c-5.5 0-10-4.5-10-10v-22c0-5.5 4.5-10 10-10z" />
    <path stroke="#231F20" opacity="0.25" d="M234 111h32" />
    <g stroke="#c8c8c8">
      <path d="M250 134v-24l-28-40 28-16 28 16-28 40" />
    </g>
    <path fill="#81461e" d="M384 145v200l-134 73-134-73V145Z" />
    <path fill="#231F20" opacity="0.25" d="M128 202v10h-12v-10zM384 202v10h-12v-10z" />
    <path id="path-1" d="M372 144v236l-122 71-122-71v-236Z" />
    <use href="#path-1" fill="#b27429" />
    <path fill="#9c6026" d="M372 144v38h-244v-38Z" />
    <path fill="#ecb55a" opacity="0.25" d="M128 144h16v38h-16ZM356 144h16v38h-16Z" />
    <clipPath id="shadow-clip-1">
      <path d="M128 182h16v197l31 30h-47ZM220 168h60v293h-60ZM356 182h16v227h-47l31-30Z" />
    </clipPath>
    <use href="#path-1" clip-path="url(#shadow-clip-1)" fill="#ecb55a" />
    <path stroke="#231F20" opacity="0.25" d="M178 197h-8q-6 0-6-6v-26q0-12 12-12h148q12 0 12 12v26q0 6-6 6h-8" />
    <path stroke="#c8c8c8" d="M178 176h-8q-6 0-6-6V144q0-12 12-12H324q12 0 12 12V170q0 6-6 6h-8" />
    <path fill="#ecb55a" d="M128 380 250 455 372 380 250 451Z" />
  </g>
  <g>
    <path fill="#000000" opacity="0.25" d="M317 319v18l-67 39-67-39v-18Z" />
    <path fill="#000000" d="M323 144v173l-73 42-73-42v-173Z" />
    <path fill="#ffffff" d="M223 205v93h-18v-93ZM275 265l10-60h17l-17 93h-20l-17-93h17Z" />
  </g>
</svg>
