<svg
  xmlns="http://www.w3.org/2000/svg"
  width="500"
  height="500"
  viewBox="0 0 500 500"
  class="r6data__rank r6data__rank__v3 r6data__rank__v3__copper_1"
  id="copper_1"
>
  <g fill="none" stroke-width="10" stroke-linejoin="round">
    <path
      stroke="#c8c8c8"
      d="M391 111c5.5 0 10 4.5 10 10v22c0 5.5-4.5 10-10 10h-282c-5.5 0-10-4.5-10-10v-22c0-5.5 4.5-10 10-10z"
    />
    <g stroke="#c8c8c8">
      <path d="M250 110l-28-40 28-16 28 16-28 40Z" />
    </g>
    <path fill="#910300" d="M384 145v229l-134 73-134-73V145Z" />
    <path id="path-1" d="M372 144v236l-122 71-122-71v-236Z" />
    <use href="#path-1" fill="#910300" />
    <path
      fill="#bd3321"
      opacity="0.25"
      d="M128 144h16v38h-16ZM356 144h16v38h-16Z"
    />
    <clipPath id="shadow-clip-1">
      <path d="M128 182h16v197l31 30h-47ZM356 182h16v227h-47l31-30Z" />
    </clipPath>
    <use href="#path-1" clip-path="url(#shadow-clip-1)" fill="#bd3321" />
    <path fill="#bd3321" d="M128 380 250 455 372 380 250 451Z" />
  </g>
  <g>
    <path fill="#000000" opacity="0.25" d="M317 319v91l-67 39-67-39V319Z" />
    <path fill="#000000" d="M323 144v245l-73 42-73-42V144Z" />
    <path
      fill="#ffffff"
      d="M250 186l14 42h43l-35 25 14 42-35-25-35 25 14-42-35-25h43Z"
    />
    <path
      fill="#ffffff"
      d="M211 332l39-23 39 23-9 5-30-18-30 18ZM177 312l73 42 73-42v10l-73 42-73-42Zm0 20 73 42 73-42v10l-73 42-73-42Zm0 20 73 42 73-42v10l-73 42-73-42Z"
    />
  </g>
</svg>
