<svg
  xmlns="http://www.w3.org/2000/svg"
  width="500"
  height="500"
  viewBox="0 0 500 500"
  class="r6data__rank r6data__rank__v3 r6data__rank__v3__platinum_2_v2"
  id="platinum_2_v2"
>
  <g
    fill="none"
    stroke-width="10"
    stroke-linejoin="round"
  >
    <path stroke="#c8c8c8" d="M391 111c5.5 0 10 4.5 10 10v22c0 5.5-4.5 10-10 10h-282c-5.5 0-10-4.5-10-10v-22c0-5.5 4.5-10 10-10z" />
    <path stroke="#231F20" opacity="0.25" d="M206 111H294" />
    <g stroke="#ffffff">
      <path d="M250 93l-35 25 12-42-33-25h42l14-43 14 43h42l-33 25 12 42z" />
      <path stroke-linecap="round" d="M158 86h42M300 86h42" />
    </g>
    <path stroke="#ffffff" d="M250 95V132" />
    <path stroke="#60d2d3" d="M422 192v159l-172 100-172-100v-159Z" />
    <clipPath id="shadow-clip-1">
      <path d="M187 435l7 5-14 4-8-6M314 435l-7 5 14 4 8-6" />
    </clipPath>
    <path id="line1" d="M175 434l30 20M325 434l-30 20" />
    <use href="#line1" stroke="#c8c8c8" />
    <use href="#line1" stroke="#000000" opacity="0.25" clip-path="url(#shadow-clip-1)" />
    <path id="path-1" d="M384 145v308l-134-31-134 31v-308Z" />
    <use fill="#13827e" href="#path-1" />
    <path fill="#b5f6f4" d="M384 438v15l-134-31-134 31v-15l134-31ZM384 407v15l-134-31-134 31v-15l134-31Z" />
    <clipPath id="shadow-clip-2">
      <path d="M128 378l92 51-30 7L128 401ZM372 378l-92 51 30 7L372 401Z" />
    </clipPath>
    <use href="#path-1" clip-path="url(#shadow-clip-2)" fill="#000000" opacity="0.25" />
    <path fill="#231F20" opacity="0.25" d="M128 202v10h-12v-10zM384 202v10h-12v-10z" />
    <path id="path-2" d="M372 144v236l-122 71-122-71v-236Z" />
    <use href="#path-2" fill="#45ccc3" />
    <path fill="#4aaead" d="M372 144v38h-244v-38Z" />
    <path fill="#60d2d3" opacity="0.25" d="M128 144h16v38h-16ZM356 144h16v38h-16Z" />
    <clipPath id="shadow-clip-3">
      <path d="M140 182l10-6 10 6v220h-20ZM190 167l10-6 10 6v265h-20ZM240 167l10-6 10 6v290h-20ZM291 167l10-6 10 6v265h-20ZM341 182l10-6 10 6v220h-20Z" />
    </clipPath>
    <use href="#path-2" clip-path="url(#shadow-clip-3)" fill="#c3fbfa" />
    <path stroke="#231F20" opacity="0.25" d="M178 197h-8q-6 0-6-6v-26q0-12 12-12h148q12 0 12 12v26q0 6-6 6h-8" />
    <path stroke="#ffffff" d="M178 176h-8q-6 0-6-6V144q0-12 12-12H324q12 0 12 12V170q0 6-6 6h-8" />
    <path stroke="#c8c8c8" d="M193 446l12 8v-44l45-26 45 26v44l12-8" />
    <path fill="#ffffff" d="M128 380 250 455 372 380 250 451Z" />
    <g>
      <path fill="#231F20" opacity="0.25" d="M126 315l124-73 124 73-124-63Z" />
      <path fill="#4aaead" d="M126 282l124-73 124 73v33l-124-73-124 73Z" />
      <path fill="#ffffff" d="M126 315l124-73 124 73-124-70Z" />
      <path fill="#c5faf7" d="M128 270l8-5v34l-8 5Zm40-25 8-5v34l-8 5ZM364 265l8 5v34l-8-5Zm-40-25 8 5v34l-8-5Z" />
    </g>
    <g>
      <path fill="#231F20" opacity="0.25" d="M126 381l124-73 124 73-124-63Z" />
      <path fill="#4aaead" d="M126 348l124-73 124 73v33l-124-73-124 73Z" />
      <path fill="#ffffff" d="M126 381l124-73 124 73-124-70Z" />
      <path fill="#c5faf7" d="M128 337l8-5v34l-8 5Zm40-25 8-5v34l-8 5ZM364 332l8 5v34l-8-5Zm-40-25 8 5v34l-8-5Z" />
    </g>
  </g>
  <g>
    <path fill="#000000" opacity="0.25" d="M317 319v61l-67 39-67-39V319Z" />
    <path fill="#000000" d="M323 144v215l-73 42-73-42V144Z" />
    <path fill="#ffffff" d="M236 203v93h-18v-93Zm46 0v93h-18v-93Z" />
    <path fill="#ffffff" d="M177 319l73 42 73-42v10l-73 42-73-42ZM177 339l73 42 73-42v10l-73 42-73-42Z" />
  </g>
</svg>
