<svg
  xmlns="http://www.w3.org/2000/svg"
  viewBox="0 0 200 200"
  fill="none"
  stroke="#ffffff"
  class="r6data__attachment r6data__attachment__sight r6data__attachment__sight__holo_c"
  id="holo_c"
>
  <style>#optic { color: #ff0b2f }</style>
  <path fill="#000000" d="M161 70 166 75 168 99H161M39 70 34 75 32 99H39" />
  <path fill="#000000" fill-rule="evenodd" d="M39 27 54 12H146L161 27V91L168 99V172L154 190H124V182H76V190H46L32 172V99L39 91ZM47 29 56 20H144L153 29V89L123 99H77L47 89Z" />
  <g id="optic">
    <ellipse fill="currentColor" stroke="none" cx="100" cy="59" rx="1" />
    <path stroke="currentColor" d="M92 59h-13M108 59h13" />
  </g>
  <path d="M32 159H168" />
  <g stroke-width="0.5">
    <path d="M32 172H168" />
    <ellipse cx="45" cy="101" rx="4" />
    <ellipse cx="155" cy="101" rx="4" />
    <ellipse cx="45" cy="147" rx="4" />
    <ellipse cx="155" cy="147" rx="4" />
    <path d="M41 101h8M45 97v8" />
    <path d="M151 101h8M155 97v8" />
    <path d="M41 147h8M45 143v8" />
    <path d="M151 147h8M155 143v8" />
    <path d="M43 121 57 103 80 110H120L143 103 157 121V127L143 145 120 138H80L57 145 43 127Z" />
    <path d="M49 122 60 108 77 114V133L59 139 49 126Z" />
    <rect x="90" y="115" width="20" height="18" />
    <path d="M151 122 140 108 123 114V133L141 139 151 126Z" />
  </g>
</svg>
