<svg
  xmlns="http://www.w3.org/2000/svg"
  viewBox="0 0 200 200"
  fill="none"
  stroke="#ffffff"
  class="r6data__attachment r6data__attachment__sight r6data__attachment__sight__red_dot_a"
  id="red_dot_a"
>
  <style>#optic { color: #ff0b2f }</style>
  <g fill="#000000">
    <path d="M39 39V31C45 11 115 11 121 31V39" />
    <path d="M154 50H182Q190 50 190 58V171Q190 179 182 179H154" />
    <path d="M133 50H154V184H15V122H27A1 1 0 00133 68Z" />
  </g>
  <path d="M182 50V179" />
  <path
    fill="#000000"
    fill-rule="evenodd"
    d="M10 96A1 1 0 00150 96 1 1 0 0010 96M30 96A1 1 0 00130 96 1 1 0 0030 96"
  />
  <g id="optic">
    <ellipse fill="currentColor" stroke="none" cx="80" cy="96" rx="1" />
  </g>
</svg>
