<svg
  xmlns="http://www.w3.org/2000/svg"
  viewBox="0 0 200 200"
  fill="none"
  stroke="#ffffff"
>
  <style>#optic { color: #0bad56 }</style>
  <path
    fill="#000000"
    d="M25 99 37 59A1 1 0 01181 119L170 132l-5-6L175 113A1 1 0 0043 65L33 99"
  />
  <g id="optic">
    <path
      fill="currentColor"
      stroke="none"
      d="M109 89l4 5-1 1-3-3.6-3 3.6l-1-1Z"
    />
    <path fill="currentColor" stroke="none" d="M108.25 96h1.5v4h-1.5Z" />
    <path
      fill="currentColor"
      stroke="none"
      d="M102 87v2h-11v-2ZM116 87h11v2h-11Z"
    />
  </g>
  <path fill="#000000" d="M18 157H70L78 160H148L165 180 148 190H70Z" />
  <path fill="#000000" d="M63 99 69 95A1 1 0 0179 109L70 116" />
  <path
    fill="#000000"
    d="M13 110Q13 99 23 99H65Q70 99 70 104V157H18Q13 157 13 152Z"
  />
  <path stroke-width="0.5" d="M18 100V157M65 99V157" />
</svg>
