<svg
  xmlns="http://www.w3.org/2000/svg"
  viewBox="0 0 200 200"
  fill="none"
  stroke="#ffffff"
  class="r6data__attachment r6data__attachment__sight r6data__attachment__sight__telescopic_a"
  id="telescopic_a"
>
  <style>
    #optic {
      color: #ff0b2f
    }
  </style>
  <defs>
    <mask id="mask">
      <rect fill="#ffffff" x="108" y="99" width="10" height="10" />
      <rect fill="#000000" stroke="none" x="111" y="97" width="4" height="14" />
      <rect
        fill="#000000"
        stroke="none"
        x="106"
        y="102"
        width="14"
        height="4"
      />
    </mask>
  </defs>
  <g fill="#000000">
    <path d="M81 57V35Q81 27 89 27H137Q145 27 145 35V57" />
    <path d="M160 72H182Q190 72 190 80V128Q190 136 182 136H160" />
    <path d="M136 156V176Q136 179 133 179H93Q90 179 90 176V156" />
    <path
      d="M57 113 46 100 43 100 30 92 29.5 93 25 88 17 85 16 75Q28 46 52 23L61 20 66 26 73 29 72 30 85 39 86 42 103 49A60 60 0 0057 113"
    />
    <path
      fill-rule="evenodd"
      d="M56 104a1 1 0 00114 0A1 1 0 0056 104M67 104a1 1 0 0092 0A1 1 0 0067 104"
    />
  </g>
  <g id="optic">
    <ellipse fill="currentColor" stroke="none" cx="113" cy="104" rx="0.5" />
    <path
      stroke="#000000"
      stroke-width="0.5"
      d="M111.5 86h3M113 86v16M131 102.5v3M131 104h-16M111.5 122h3M113 122v-16M95 102.5v3M95 104h16"
    />
    <ellipse stroke="currentColor" mask="url(#mask)" cx="113" cy="104" rx="5" />
  </g>
  <g stroke-width="0.5">
    <path d="M46 100Q61 68 86 42" />
    <path d="M29.8 92Q43 56 72 29" />
    <path d="M17 85Q28 46 61 20" />
    <path
      d="M21.195 72.587l8 3 5.124 5.783M28.062 58.061l7.938 4.939 5.109 5.064M41.642 38.562l6.358 6.438 6.129 3.537M51.309 28.388l5.691 5.612 6.953 3.22"
    />
    <path d="M81 35H145" />
    <path d="M182 72V136" />
  </g>
</svg>
