<svg
  xmlns="http://www.w3.org/2000/svg"
  width="200"
  height="200"
  viewBox="0 0 200 200"
  fill="none"
  stroke="#ffffff"
>
  <path fill="#000000" fill-rule="evenodd" d="M10 78H95Q101 78 104 76L120 65Q123 63 126 63H182Q190 63 190 70V89C189 108 177 103 177 100 177 99 177 89 172 89H135L69 129Q67.136 130.389 68 133C69 138 59 140 54 133L23 91Q21 88 18 88H10ZM40 93Q37 88 43 88H84C89 88 90 93 87 95L61 114Q57 117 54 113Z" />
  <ellipse cx="60" cy="128" rx="2.5" />
  <ellipse cx="182" cy="90" rx="2.5" />
  <ellipse cx="114" cy="84" rx="3.5" />
  <path d="M111 86 117 82" />
  <path stroke-width="0.5" d="M69 116 89 102M70 114 87 102M71 112 85 102" />
  <path stroke-width="0.5" d="M74.5 125.5 71 121M78 124 74 119M81 122 77 117M84 120 80 115M87 118 83 113M90 116 86 111M93 114 89 109M96.5 112.5 92 107M99.5 110.5 95 105M102.5 108.5 98 103M106 107 101 101" />
  <path d="M137 75H169" />
  <path stroke-width="0.5" d="M136 89V79M138 89V79M140 89V79M142 89V79M144 89V79M146 89V79M148 89V79M150 89V79M152 89V79M154 89V79M156 89V79M158 89V79M160 89V79M162 89V79M164 89V79M166 89V79M168 89V79M170 89V79" />
</svg>
