<svg
  xmlns="http://www.w3.org/2000/svg"
  width="200"
  height="200"
  viewBox="0 0 200 200"
  fill="none"
  stroke="#ffffff"
  class="r6data__attachment r6data__attachment__grip r6data__attachment__grip__vertical_grip"
  id="vertical_grip"
>
  <path
    fill="#000000"
    d="M55 13H145V30C144 41 128 38 130 55Q136 113 129 170l2 2v12Q100 192 69 184V172L71 170Q66 113 70 55C72 38 56 41 55 30Z"
  />
  <path d="M55 30Q100 36 145 30M100 58V173M71 170Q100 177 129 170" />
  <g stroke-width="0.5">
    <line x1="72" y1="58" x2="128" y2="58" />
    <line x1="72" y1="63" x2="128" y2="63" />
    <line x1="72" y1="68" x2="128" y2="68" />
    <line x1="72" y1="73" x2="128" y2="73" />
    <line x1="72" y1="78" x2="128" y2="78" />
    <line x1="72" y1="83" x2="128" y2="83" />
    <line x1="72" y1="88" x2="128" y2="88" />
    <line x1="72" y1="93" x2="128" y2="93" />
    <line x1="72" y1="98" x2="128" y2="98" />
    <line x1="72" y1="103" x2="128" y2="103" />
    <line x1="72" y1="108" x2="128" y2="108" />
    <line x1="72" y1="113" x2="128" y2="113" />
    <line x1="72" y1="118" x2="128" y2="118" />
    <line x1="72" y1="123" x2="128" y2="123" />
    <line x1="72" y1="128" x2="128" y2="128" />
    <line x1="72" y1="133" x2="128" y2="133" />
    <line x1="72" y1="138" x2="128" y2="138" />
    <line x1="72" y1="143" x2="128" y2="143" />
    <line x1="72" y1="148" x2="128" y2="148" />
    <line x1="72" y1="153" x2="128" y2="153" />
    <line x1="72" y1="158" x2="128" y2="158" />
    <line x1="72" y1="163" x2="128" y2="163" />
  </g>
  <rect
    fill="#ffffff"
    stroke="none"
    x="98"
    y="21"
    width="4"
    height="4"
    transform="rotate(45 100 23)"
  />
  <path d="M100 17 105 20 105 26 100 29 95 26 95 20 100 17Z" />
</svg>
