<?xml version="1.0" encoding="UTF-8" ?>
<!-- Generator: Adobe Illustrator 16.0.2, SVG Export Plug-In . SVG Version: 6.00 Build 0)  -->
<!DOCTYPE svg PUBLIC "-//W3C//DTD SVG 1.1//EN"
  "http://www.w3.org/Graphics/SVG/1.1/DTD/svg11.dtd">
<svg
  version="1.1"
  xmlns="http://www.w3.org/2000/svg"
  xmlns:xlink="http://www.w3.org/1999/xlink"
  x="0px"
  y="0px"
  width="242.38px"
  height="242.38px"
  viewBox="0 0 242.38 242.38"
  enable-background="new 0 0 242.38 242.38"
  xml:space="preserve"
>
  <g id="Frame_Ref" display="none">
    <g display="inline">
      <g>
        <rect
          x="0.17"
          y="-0.16"
          fill="none"
          stroke="#929497"
          stroke-width="0.5"
          stroke-miterlimit="10"
          width="242.38"
          height="242.38"
        />
        <polygon
          fill="none"
          stroke="#929497"
          stroke-width="0.5"
          stroke-miterlimit="10"
          points="30.27,72.14 121.36,19.55      212.44,72.14 212.44,177.31 121.36,229.9 30.27,177.31    "
        />
        <line
          fill="none"
          stroke="#929497"
          stroke-width="0.5"
          stroke-miterlimit="10"
          x1="0.17"
          y1="102.28"
          x2="242.55"
          y2="242.22"
        />
        <line
          fill="none"
          stroke="#929497"
          stroke-width="0.5"
          stroke-miterlimit="10"
          x1="242.55"
          y1="102.28"
          x2="0.17"
          y2="242.22"
        />
        <line
          fill="none"
          stroke="#929497"
          stroke-width="0.5"
          stroke-miterlimit="10"
          x1="0.17"
          y1="-0.16"
          x2="242.55"
          y2="139.78"
        />
        <line
          fill="none"
          stroke="#929497"
          stroke-width="0.5"
          stroke-miterlimit="10"
          x1="242.55"
          y1="-0.16"
          x2="0.17"
          y2="139.78"
        />
      </g>
      <g opacity="0.35">
        <path
          fill="#231F20"
          d="M121.36,203.31c0,0-52.36-24.17-58.43-64.8L0.17,101.26l30.11,76.05l29.53,17.05l11.08-6.4l50.47,30.02     V203.31z"
        />
        <polygon
          fill="#FFFFFF"
          points="10.68,130.05 45.77,150.31 10.68,138.97    "
        />
        <polygon
          fill="#FFFFFF"
          points="18.9,156.62 44.72,171.53 18.9,163.19    "
        />
        <polygon
          fill="#231F20"
          points="71.06,200.86 95.31,186.86 91.64,184.52 67.05,198.71    "
        />
        <path
          fill="#FFFFFF"
          d="M89.04,193.7l1.85-2.36c-16.79-13.1-34.18-30.64-35.88-61.37l-3,0.17     C53.78,162.06,71.72,180.18,89.04,193.7"
        />
        <path
          fill="#231F20"
          d="M121.36,203.31c0,0,52.36-24.17,58.43-64.8l62.76-37.25l-30.11,76.05l-29.53,17.05l-11.08-6.4     l-50.47,30.02V203.31z"
        />
        <polygon
          fill="#FFFFFF"
          points="232.04,130.05 196.94,150.31 232.04,138.97    "
        />
        <polygon
          fill="#FFFFFF"
          points="223.81,156.62 197.99,171.53 223.81,163.19    "
        />
        <polygon
          fill="#FFFFFF"
          points="10.68,130.05 45.77,150.31 10.68,138.97    "
        />
        <polygon
          fill="#FFFFFF"
          points="18.9,156.62 44.72,171.53 18.9,163.19    "
        />
        <path
          fill="#231F20"
          d="M121.36,61.3l44.36,9.37v61.31c0,0.07-0.24,7.54-5.64,17.89c-5.17,9.93-16.06,24.23-38.72,37.31     c-17.64-10.18-30.8-22.69-38.21-36.35c-5.78-10.65-6.13-18.48-6.15-18.91V70.67L121.36,61.3 M121.36,53.12L69,64.18v67.79     c0,0,0,36.12,52.36,64.36c52.36-28.24,52.36-64.36,52.36-64.36V64.18L121.36,53.12z"
        />
        <polygon
          fill="#FFFFFF"
          points="181.26,206.5 146.04,186.16 121.36,203.31 96.68,186.16 61.45,206.5 92.43,206.5 107.48,221.31      135.2,221.31 149.51,206.5    "
        />
        <polygon
          fill="#231F20"
          points="152.73,83.05 144.24,89.75 147.42,100.32 138.67,94 129.98,100.42 133.06,89.82 124.52,83.22      135.17,82.98 138.58,72.48 142.08,82.94    "
        />
        <polygon
          fill="#231F20"
          points="119.36,83.05 110.86,89.75 114.04,100.32 105.29,94 96.61,100.42 99.69,89.82 91.14,83.22      101.79,82.98 105.2,72.48 108.7,82.94    "
        />
        <polygon
          fill="#231F20"
          points="152.73,113.55 144.24,120.25 147.42,130.82 138.67,124.5 129.98,130.92 133.06,120.32      124.52,113.72 135.17,113.48 138.58,102.98 142.08,113.44    "
        />
        <polygon
          fill="#231F20"
          points="119.36,113.55 110.86,120.25 114.04,130.82 105.29,124.5 96.61,130.92 99.69,120.32      91.14,113.72 101.79,113.48 105.2,102.98 108.7,113.44    "
        />
        <polygon
          fill="#231F20"
          points="173.72,59.96 121.36,49.61 69,59.96 69,53.93 121.36,43.57 173.72,53.93    "
        />
        <polygon
          fill="#231F20"
          points="171.65,200.86 147.4,186.86 151.07,184.52 175.66,198.71    "
        />
        <path
          fill="#231F20"
          d="M69,49.49V43.6l47.08-9.7c-2.91-4.55-4.07-9-3.45-13.29c1.05-7.21,6.84-11.04,7.09-11.2l1.63-1.05     l1.63,1.05c0.25,0.16,6.05,3.99,7.1,11.2c0.63,4.29-0.53,8.75-3.44,13.29l47.08,9.85v5.89l-52.36-10.51L69,49.49z M121.35,15.91     c-1.11,1.2-2.44,3.11-2.79,5.63c-0.4,2.9,0.54,6.08,2.8,9.48c2.26-3.4,3.19-6.57,2.79-9.47     C123.8,19.02,122.47,17.11,121.35,15.91"
        />
        <g>
          <defs>
            <polygon
              id="SVGID_33_"
              points="121.36,203.31 95.26,186.86 61.45,206.5 121.36,238.29 181.26,206.5 147.4,186.86      "
            />
          </defs>
          <clipPath id="SVGID_2_">
            <use xlink:href="#SVGID_33_" overflow="visible" />
          </clipPath>
          <path
            clip-path="url(#SVGID_2_)"
            fill="#231F20"
            d="M121.36,183.07l34.21,20.05l-34.21,20.05l-34.21-20.05L121.36,183.07z       M121.36,176.12l-46.08,27.01l46.08,27.01l46.08-27.01L121.36,176.12z"
          />
        </g>
        <polygon
          fill="#231F20"
          points="183.78,196.33 168.35,205.15 166.11,214.8 171.55,207.66 181.84,204.7 185.81,207.71      184.91,200.95 189.2,201.29    "
        />
        <path
          fill="#FFFFFF"
          d="M153.67,193.7l-1.85-2.36c16.79-13.1,34.18-30.64,35.88-61.37l3,0.17     C188.94,162.06,170.99,180.18,153.67,193.7"
        />
        <polygon
          fill="#231F20"
          points="58.94,196.33 74.36,205.15 76.6,214.8 71.16,207.66 60.87,204.7 56.9,207.71 57.8,200.95      53.51,201.29    "
        />
        <path
          fill="#231F20"
          d="M109.56,198.93v-12.74l-4.04,1.1l-9.13-5.38l3.21-14.82c-0.38-1.77-1.77-9.66,1.4-16.79     c3.74-8.43,10.02-12.18,20.36-12.18s16.62,3.76,20.36,12.18c3.17,7.14,1.77,15.03,1.4,16.79l3.21,14.82l-9.13,5.38l-4.04-1.1     v12.74l-11.79,6.1L109.56,198.93z M121.36,183.71l2.63-1.24l-2.63-5.84l-2.63,5.84L121.36,183.71z M104.72,176.99     c3.13-0.15,9.29-0.99,11.89-5.26l-9.77-4.07L104.72,176.99z M126.13,171.72c1.06,1.64,2.89,2.92,5.44,3.83     c2.67,0.96,4.95,1.29,6.42,1.41l-2.11-9.3L126.13,171.72z"
        />
        <path
          fill="#FFFFFF"
          d="M121.36,139.6c10.43,0,15.71,3.92,18.99,11.29c3.35,7.55,1.23,16.18,1.23,16.18l3.05,14.08l-7.65,4.51     l-5.32-1.45v13.79l-10.29,5.33l-10.29-5.33v-13.79l-5.32,1.45l-7.65-4.51l3.05-14.08c0,0-2.12-8.63,1.23-16.18     C105.64,143.52,110.93,139.6,121.36,139.6 M139.29,178.51c0.38,0,0.58-0.01,0.58-0.01l-2.93-12.91l-12.88,5.36     c1.16,3.09,3.96,4.93,7,6.01C134.95,178.35,138.05,178.51,139.29,178.51 M103.58,178.51c2.76,0,12.42-0.51,15.06-7.56     l-12.88-5.36l-2.93,12.91C102.84,178.5,103.11,178.51,103.58,178.51 M121.36,185.37l4.61-2.17l-4.61-10.21l-4.6,10.21     L121.36,185.37 M121.36,136.6c-11.01,0-17.72,4.03-21.73,13.07c-3.18,7.16-2.02,15-1.56,17.39l-2.91,13.46l-0.46,2.12l1.87,1.1     l7.65,4.51l1.09,0.64l1.22-0.33l1.54-0.42v9.87v1.83l1.62,0.84l10.29,5.33l1.38,0.71l1.38-0.71l10.29-5.33l1.62-0.84v-1.83v-9.87     l1.54,0.42l1.22,0.33l1.09-0.64l7.65-4.51l1.87-1.1l-0.46-2.12l-2.91-13.46c0.47-2.39,1.62-10.23-1.56-17.39     C139.07,140.64,132.37,136.6,121.36,136.6 M128.64,172.29l6.16-2.57l1.24,5.47c-1.14-0.2-2.49-0.53-3.97-1.06     C130.66,173.64,129.52,173.02,128.64,172.29 M106.64,175.3l1.27-5.58l6.26,2.61C112.14,174.22,109.02,174.99,106.64,175.3      M120.7,181.74l0.66-1.46l0.66,1.46l-0.66,0.31L120.7,181.74z"
        />
        <line fill="#231F20" x1="121.36" y1="191.31" x2="121.36" y2="211.98" />
        <line
          fill="none"
          stroke="#FFFFFF"
          stroke-width="2"
          stroke-miterlimit="10"
          x1="121.36"
          y1="191.31"
          x2="121.36"
          y2="211.98"
        />
        <line fill="#231F20" x1="115.36" y1="189.31" x2="115.36" y2="209.98" />
        <line
          fill="none"
          stroke="#FFFFFF"
          stroke-width="2"
          stroke-miterlimit="10"
          x1="115.36"
          y1="189.31"
          x2="115.36"
          y2="209.98"
        />
        <line fill="#231F20" x1="127.36" y1="189.31" x2="127.36" y2="209.98" />
        <line
          fill="none"
          stroke="#FFFFFF"
          stroke-width="2"
          stroke-miterlimit="10"
          x1="127.36"
          y1="189.31"
          x2="127.36"
          y2="209.98"
        />
      </g>
    </g>
  </g>
  <g id="Info" display="none" />
  <g id="Ranks_Old" display="none">
    <g display="inline">
      <path
        fill="#D0D2D3"
        d="M121.36,53.12L69,64.05v23.13v44.79c0,0,0,36.12,52.36,64.36c52.36-28.24,52.36-64.36,52.36-64.36V64.05    L121.36,53.12z"
      />
      <path
        fill="none"
        stroke="#D0D2D3"
        stroke-width="8"
        stroke-linejoin="round"
        stroke-miterlimit="10"
        d="M121.36,53.12L69,64.05    v23.13v44.79c0,0,0,36.12,52.36,64.36c52.36-28.24,52.36-64.36,52.36-64.36V64.05L121.36,53.12z"
      />
      <path
        fill="#231F20"
        d="M121.36,61.3l44.36,9.37v61.31c0,0.07-0.24,7.54-5.64,17.89c-5.17,9.93-16.06,24.23-38.72,37.31    c-17.64-10.18-30.8-22.69-38.21-36.35c-5.78-10.65-6.13-18.48-6.14-18.91V70.67L121.36,61.3 M121.36,53.12L69,64.18v67.79    c0,0,0,36.12,52.36,64.36c52.36-28.24,52.36-64.36,52.36-64.36V64.18L121.36,53.12z"
      />
      <polyline
        fill="none"
        stroke="#231F20"
        stroke-width="5"
        stroke-miterlimit="10"
        points="73.94,90.33 121.35,68.14 168.77,90.33       "
      />
      <polygon
        fill="#231F20"
        points="119.91,99.51 110.03,107.3 113.73,119.58 103.56,112.24 93.46,119.7 97.05,107.38 87.11,99.71     99.49,99.43 103.45,87.23 107.52,99.38   "
      />
      <polygon
        fill="#231F20"
        points="155.38,99.51 145.51,107.3 149.2,119.58 139.03,112.24 128.93,119.7 132.52,107.38 122.59,99.71     134.97,99.43 138.93,87.23 143,99.38   "
      />
      <polygon
        fill="#231F20"
        points="119.91,132.51 110.03,140.3 113.73,152.58 103.56,145.24 93.46,152.7 97.05,140.38 87.11,132.71     99.49,132.43 103.45,120.23 107.52,132.38   "
      />
      <polygon
        fill="#231F20"
        points="155.38,132.51 145.51,140.3 149.2,152.58 139.03,145.24 128.93,152.7 132.52,140.38     122.59,132.71 134.97,132.43 138.93,120.23 143,132.38   "
      />
    </g>
  </g>
  <g id="Rank">
    <g>
      <path
        fill="#A94000"
        stroke="#A94000"
        stroke-width="8"
        stroke-linecap="round"
        stroke-linejoin="round"
        stroke-miterlimit="10"
        d="    M121.36,52.58L69,63.51v23.13v44.79c0,0,0,36.12,52.36,64.36c52.36-28.24,52.36-64.36,52.36-64.36V63.51L121.36,52.58z"
      />
      <path
        fill="#231F20"
        d="M121.36,60.76l44.36,9.37v61.31c0,0.07-0.24,7.54-5.64,17.89c-5.17,9.93-16.06,24.23-38.72,37.31    c-17.64-10.18-30.8-22.69-38.21-36.35c-5.78-10.65-6.13-18.48-6.14-18.91V70.13L121.36,60.76 M121.36,52.58L69,63.64v67.79    c0,0,0,36.12,52.36,64.36c52.36-28.24,52.36-64.36,52.36-64.36V63.64L121.36,52.58z"
      />
      <polyline
        fill="none"
        stroke="#231F20"
        stroke-width="5"
        stroke-miterlimit="10"
        points="73.94,89.78 121.35,67.59 168.77,89.78       "
      />
      <polygon
        fill="#231F20"
        points="119.9,98.97 110.03,106.75 113.73,119.04 103.56,111.7 93.46,119.16 97.04,106.84 87.11,99.17     99.49,98.89 103.45,86.69 107.52,98.84   "
      />
      <polygon
        fill="#231F20"
        points="155.38,98.97 145.51,106.75 149.2,119.04 139.03,111.7 128.93,119.16 132.52,106.84 122.59,99.17     134.96,98.89 138.93,86.69 142.99,98.84   "
      />
      <polygon
        fill="#231F20"
        points="119.9,131.97 110.03,139.75 113.73,152.04 103.56,144.7 93.46,152.16 97.04,139.84 87.11,132.17     99.49,131.89 103.45,119.69 107.52,131.84   "
      />
      <polygon
        fill="#231F20"
        points="155.38,131.97 145.51,139.75 149.2,152.04 139.03,144.7 128.93,152.16 132.52,139.84     122.59,132.17 134.96,131.89 138.93,119.69 142.99,131.84   "
      />
    </g>
  </g>
</svg>
