<?xml version="1.0" encoding="UTF-8"?>
<!-- Generator: Adobe Illustrator 16.0.2, SVG Export Plug-In . SVG Version: 6.00 Build 0)  -->
<!DOCTYPE svg PUBLIC "-//W3C//DTD SVG 1.1//EN" "http://www.w3.org/Graphics/SVG/1.1/DTD/svg11.dtd">
<svg version="1.1" xmlns="http://www.w3.org/2000/svg" xmlns:xlink="http://www.w3.org/1999/xlink" x="0px" y="0px" width="242.38px" height="242.38px" viewBox="0 0 242.38 242.38" enable-background="new 0 0 242.38 242.38" xml:space="preserve">
<g id="Frame_Ref" display="none">
	<g display="inline">
		<g>
			
				<rect x="0.21" y="-0.16" fill="none" stroke="#929497" stroke-width="0.5" stroke-miterlimit="10" width="242.38" height="242.38"/>
			<polygon fill="none" stroke="#929497" stroke-width="0.5" stroke-miterlimit="10" points="30.31,72.14 121.4,19.55 212.48,72.14      212.48,177.31 121.4,229.9 30.31,177.31    "/>
			<line fill="none" stroke="#929497" stroke-width="0.5" stroke-miterlimit="10" x1="0.21" y1="102.28" x2="242.59" y2="242.22"/>
			<line fill="none" stroke="#929497" stroke-width="0.5" stroke-miterlimit="10" x1="242.59" y1="102.28" x2="0.21" y2="242.22"/>
			<line fill="none" stroke="#929497" stroke-width="0.5" stroke-miterlimit="10" x1="0.21" y1="-0.16" x2="242.59" y2="139.78"/>
			<line fill="none" stroke="#929497" stroke-width="0.5" stroke-miterlimit="10" x1="242.59" y1="-0.16" x2="0.21" y2="139.78"/>
		</g>
		<g opacity="0.35">
			<path fill="#231F20" d="M121.4,203.31c0,0-52.36-24.17-58.43-64.8L0.21,101.26l30.11,76.05l29.53,17.05l11.08-6.4l50.47,30.02     V203.31z"/>
			<polygon fill="#FFFFFF" points="10.72,130.05 45.81,150.31 10.72,138.97    "/>
			<polygon fill="#FFFFFF" points="18.94,156.62 44.77,171.53 18.94,163.19    "/>
			<polygon fill="#231F20" points="71.1,200.86 95.36,186.86 91.68,184.52 67.1,198.71    "/>
			<path fill="#FFFFFF" d="M89.09,193.7l1.85-2.36c-16.79-13.1-34.18-30.64-35.88-61.37l-3,0.17     C53.82,162.06,71.76,180.18,89.09,193.7"/>
			<path fill="#231F20" d="M121.4,203.31c0,0,52.36-24.17,58.43-64.8l62.76-37.25l-30.11,76.05l-29.53,17.05l-11.08-6.4     l-50.47,30.02V203.31z"/>
			<polygon fill="#FFFFFF" points="232.08,130.05 196.99,150.31 232.08,138.97    "/>
			<polygon fill="#FFFFFF" points="223.86,156.62 198.03,171.53 223.86,163.19    "/>
			<polygon fill="#FFFFFF" points="10.72,130.05 45.81,150.31 10.72,138.97    "/>
			<polygon fill="#FFFFFF" points="18.94,156.62 44.77,171.53 18.94,163.19    "/>
			<path fill="#231F20" d="M121.4,61.3l44.36,9.37v61.31c0,0.07-0.24,7.54-5.64,17.89c-5.17,9.93-16.06,24.23-38.72,37.31     c-17.64-10.18-30.8-22.69-38.21-36.35c-5.78-10.65-6.13-18.48-6.15-18.91V70.67L121.4,61.3 M121.4,53.12L69.04,64.18v67.79     c0,0,0,36.12,52.36,64.36c52.36-28.24,52.36-64.36,52.36-64.36V64.18L121.4,53.12z"/>
			<polygon fill="#FFFFFF" points="181.3,206.5 146.08,186.16 121.4,203.31 96.72,186.16 61.5,206.5 92.48,206.5 107.52,221.31      135.24,221.31 149.56,206.5    "/>
			<polygon fill="#231F20" points="152.77,83.05 144.28,89.75 147.46,100.32 138.71,94 130.02,100.42 133.11,89.82 124.56,83.22      135.21,82.98 138.62,72.48 142.12,82.94    "/>
			<polygon fill="#231F20" points="119.4,83.05 110.91,89.75 114.09,100.32 105.34,94 96.65,100.42 99.73,89.82 91.19,83.22      101.84,82.98 105.25,72.48 108.75,82.94    "/>
			<polygon fill="#231F20" points="152.77,113.55 144.28,120.25 147.46,130.82 138.71,124.5 130.02,130.92 133.11,120.32      124.56,113.72 135.21,113.48 138.62,102.98 142.12,113.44    "/>
			<polygon fill="#231F20" points="119.4,113.55 110.91,120.25 114.09,130.82 105.34,124.5 96.65,130.92 99.73,120.32 91.19,113.72      101.84,113.48 105.25,102.98 108.75,113.44    "/>
			<polygon fill="#231F20" points="173.76,59.96 121.4,49.61 69.04,59.96 69.04,53.93 121.4,43.57 173.76,53.93    "/>
			<polygon fill="#231F20" points="171.69,200.86 147.44,186.86 151.12,184.52 175.7,198.71    "/>
			<path fill="#231F20" d="M69.04,49.49V43.6l47.08-9.7c-2.91-4.55-4.07-9-3.45-13.29c1.05-7.21,6.84-11.04,7.09-11.2l1.63-1.05     l1.63,1.05c0.25,0.16,6.05,3.99,7.1,11.2c0.63,4.29-0.53,8.75-3.44,13.29l47.08,9.85v5.89L121.4,39.14L69.04,49.49z      M121.39,15.91c-1.11,1.2-2.44,3.11-2.79,5.63c-0.4,2.9,0.54,6.08,2.8,9.48c2.26-3.4,3.19-6.57,2.79-9.47     C123.84,19.02,122.51,17.11,121.39,15.91"/>
			<g>
				<defs>
					<polygon id="SVGID_1_" points="121.4,203.31 95.3,186.86 61.5,206.5 121.4,238.29 181.3,206.5 147.44,186.86      "/>
				</defs>
				<clipPath id="SVGID_2_">
					<use xlink:href="#SVGID_1_" overflow="visible"/>
				</clipPath>
				<path clip-path="url(#SVGID_2_)" fill="#231F20" d="M121.4,183.07l34.21,20.05l-34.21,20.05l-34.21-20.05L121.4,183.07z       M121.4,176.12l-46.08,27.01l46.08,27.01l46.08-27.01L121.4,176.12z"/>
			</g>
			<polygon fill="#231F20" points="183.82,196.33 168.39,205.15 166.16,214.8 171.6,207.66 181.88,204.7 185.85,207.71      184.96,200.95 189.25,201.29    "/>
			<path fill="#FFFFFF" d="M153.71,193.7l-1.85-2.36c16.79-13.1,34.18-30.64,35.88-61.37l3,0.17     C188.98,162.06,171.03,180.18,153.71,193.7"/>
			<polygon fill="#231F20" points="58.98,196.33 74.41,205.15 76.64,214.8 71.2,207.66 60.92,204.7 56.95,207.71 57.84,200.95      53.55,201.29    "/>
			<path fill="#231F20" d="M109.6,198.93v-12.74l-4.04,1.1l-9.13-5.38l3.21-14.82c-0.38-1.77-1.77-9.66,1.4-16.79     c3.74-8.43,10.02-12.18,20.36-12.18s16.62,3.76,20.36,12.18c3.17,7.14,1.77,15.03,1.4,16.79l3.21,14.82l-9.13,5.38l-4.04-1.1     v12.74l-11.79,6.1L109.6,198.93z M121.4,183.71l2.63-1.24l-2.63-5.84l-2.63,5.84L121.4,183.71z M104.77,176.99     c3.13-0.15,9.29-0.99,11.89-5.26l-9.77-4.07L104.77,176.99z M126.17,171.72c1.06,1.64,2.89,2.92,5.44,3.83     c2.67,0.96,4.95,1.29,6.42,1.41l-2.11-9.3L126.17,171.72z"/>
			<path fill="#FFFFFF" d="M121.4,139.6c10.43,0,15.71,3.92,18.99,11.29c3.35,7.55,1.23,16.18,1.23,16.18l3.05,14.08l-7.65,4.51     l-5.32-1.45v13.79l-10.29,5.33l-10.29-5.33v-13.79l-5.32,1.45l-7.65-4.51l3.05-14.08c0,0-2.12-8.63,1.23-16.18     C105.68,143.52,110.97,139.6,121.4,139.6 M139.33,178.51c0.38,0,0.58-0.01,0.58-0.01l-2.93-12.91l-12.88,5.36     c1.16,3.09,3.96,4.93,7,6.01C134.99,178.35,138.1,178.51,139.33,178.51 M103.63,178.51c2.76,0,12.42-0.51,15.06-7.56l-12.88-5.36     l-2.93,12.91C102.89,178.5,103.16,178.51,103.63,178.51 M121.4,185.37l4.61-2.17l-4.61-10.21l-4.6,10.21L121.4,185.37      M121.4,136.6c-11.01,0-17.72,4.03-21.73,13.07c-3.18,7.16-2.02,15-1.56,17.39l-2.91,13.46l-0.46,2.12l1.87,1.1l7.65,4.51     l1.09,0.64l1.22-0.33l1.54-0.42v9.87v1.83l1.62,0.84l10.29,5.33l1.38,0.71l1.38-0.71l10.29-5.33l1.62-0.84v-1.83v-9.87l1.54,0.42     l1.22,0.33l1.09-0.64l7.65-4.51l1.87-1.1l-0.46-2.12l-2.91-13.46c0.47-2.39,1.62-10.23-1.56-17.39     C139.12,140.64,132.41,136.6,121.4,136.6 M128.69,172.29l6.16-2.57l1.24,5.47c-1.14-0.2-2.49-0.53-3.97-1.06     C130.71,173.64,129.56,173.02,128.69,172.29 M106.69,175.3l1.27-5.58l6.26,2.61C112.19,174.22,109.07,174.99,106.69,175.3      M120.74,181.74l0.66-1.46l0.66,1.46l-0.66,0.31L120.74,181.74z"/>
			<line fill="#231F20" x1="121.4" y1="191.31" x2="121.4" y2="211.98"/>
			<line fill="none" stroke="#FFFFFF" stroke-width="2" stroke-miterlimit="10" x1="121.4" y1="191.31" x2="121.4" y2="211.98"/>
			<line fill="#231F20" x1="115.4" y1="189.31" x2="115.4" y2="209.98"/>
			<line fill="none" stroke="#FFFFFF" stroke-width="2" stroke-miterlimit="10" x1="115.4" y1="189.31" x2="115.4" y2="209.98"/>
			<line fill="#231F20" x1="127.4" y1="189.31" x2="127.4" y2="209.98"/>
			<line fill="none" stroke="#FFFFFF" stroke-width="2" stroke-miterlimit="10" x1="127.4" y1="189.31" x2="127.4" y2="209.98"/>
		</g>
	</g>
</g>
<g id="Info" display="none">
</g>
<g id="Ranks_Old" display="none">
	<g display="inline">
		<path fill="#D0D2D3" d="M121.42,53.12L69.06,64.05v23.13v44.79c0,0,0,36.12,52.36,64.36c52.36-28.24,52.36-64.36,52.36-64.36    V64.05L121.42,53.12z"/>
		<path fill="none" stroke="#D0D2D3" stroke-width="8" stroke-linejoin="round" stroke-miterlimit="10" d="M121.42,53.12    L69.06,64.05v23.13v44.79c0,0,0,36.12,52.36,64.36c52.36-28.24,52.36-64.36,52.36-64.36V64.05L121.42,53.12z"/>
		<path fill="#231F20" d="M121.37,61.3l44.36,9.37v61.31c0,0.07-0.24,7.54-5.64,17.89c-5.17,9.93-16.06,24.23-38.72,37.31    c-17.64-10.18-30.8-22.69-38.21-36.35c-5.78-10.65-6.13-18.48-6.15-18.91V70.67L121.37,61.3 M121.37,53.12L69.01,64.18v67.79    c0,0,0,36.12,52.36,64.36c52.36-28.24,52.36-64.36,52.36-64.36V64.18L121.37,53.12z"/>
		<polyline fill="none" stroke="#231F20" stroke-width="5" stroke-miterlimit="10" points="73.82,100.33 121.23,68.14     168.65,100.33   "/>
		<polygon fill="#231F20" points="142.4,112.51 130.02,122.27 134.66,137.67 121.91,128.47 109.24,137.82 113.74,122.37     101.29,112.76 116.8,112.41 121.77,97.11 126.87,112.35   "/>
	</g>
</g>
<g id="Rank">
	<g>
		
			<path fill="#A94000" stroke="#A94000" stroke-width="8" stroke-linecap="round" stroke-linejoin="round" stroke-miterlimit="10" d="    M121.43,52.58L69.07,63.51v23.13v44.79c0,0,0,36.12,52.36,64.36c52.36-28.24,52.36-64.36,52.36-64.36V63.51L121.43,52.58z"/>
		<path fill="#231F20" d="M121.37,60.76l44.36,9.37v61.31c0,0.07-0.24,7.54-5.64,17.89c-5.17,9.93-16.06,24.23-38.72,37.31    c-17.64-10.18-30.8-22.69-38.21-36.35c-5.78-10.65-6.13-18.48-6.15-18.91V70.13L121.37,60.76 M121.37,52.58L69.01,63.64v67.79    c0,0,0,36.12,52.36,64.36c52.36-28.24,52.36-64.36,52.36-64.36V63.64L121.37,52.58z"/>
		<polyline fill="none" stroke="#231F20" stroke-width="5" stroke-miterlimit="10" points="73.82,99.78 121.23,67.59 168.65,99.78       "/>
		<polygon fill="#231F20" points="142.4,111.96 130.03,121.73 134.66,137.13 121.91,127.93 109.25,137.28 113.74,121.83     101.29,112.22 116.81,111.86 121.78,96.57 126.88,111.8   "/>
	</g>
</g>
</svg>