<?xml version="1.0" encoding="UTF-8" ?>
<!-- Generator: Adobe Illustrator 16.0.2, SVG Export Plug-In . SVG Version: 6.00 Build 0)  -->
<!DOCTYPE svg PUBLIC "-//W3C//DTD SVG 1.1//EN"
  "http://www.w3.org/Graphics/SVG/1.1/DTD/svg11.dtd">
<svg
  version="1.1"
  xmlns="http://www.w3.org/2000/svg"
  xmlns:xlink="http://www.w3.org/1999/xlink"
  x="0px"
  y="0px"
  width="242.38px"
  height="242.38px"
  viewBox="0 0 242.38 242.38"
  enable-background="new 0 0 242.38 242.38"
  xml:space="preserve"
>
  <g id="Frame_Ref" display="none">
    <g display="inline">
      <g>
        <rect
          x="0.08"
          y="-0.16"
          fill="none"
          stroke="#929497"
          stroke-width="0.5"
          stroke-miterlimit="10"
          width="242.38"
          height="242.38"
        />
        <polygon
          fill="none"
          stroke="#929497"
          stroke-width="0.5"
          stroke-miterlimit="10"
          points="30.19,72.14 121.27,19.55      212.36,72.14 212.36,177.31 121.27,229.9 30.19,177.31    "
        />
        <line
          fill="none"
          stroke="#929497"
          stroke-width="0.5"
          stroke-miterlimit="10"
          x1="0.08"
          y1="102.28"
          x2="242.46"
          y2="242.22"
        />
        <line
          fill="none"
          stroke="#929497"
          stroke-width="0.5"
          stroke-miterlimit="10"
          x1="242.46"
          y1="102.28"
          x2="0.08"
          y2="242.22"
        />
        <line
          fill="none"
          stroke="#929497"
          stroke-width="0.5"
          stroke-miterlimit="10"
          x1="0.08"
          y1="-0.16"
          x2="242.46"
          y2="139.78"
        />
        <line
          fill="none"
          stroke="#929497"
          stroke-width="0.5"
          stroke-miterlimit="10"
          x1="242.46"
          y1="-0.16"
          x2="0.08"
          y2="139.78"
        />
      </g>
      <g opacity="0.35">
        <path
          fill="#231F20"
          d="M121.27,203.31c0,0-52.36-24.17-58.43-64.8L0.08,101.26l30.11,76.05l29.53,17.05l11.08-6.4l50.47,30.02     V203.31z"
        />
        <polygon
          fill="#FFFFFF"
          points="10.59,130.05 45.68,150.31 10.59,138.97    "
        />
        <polygon
          fill="#FFFFFF"
          points="18.81,156.62 44.64,171.53 18.81,163.19    "
        />
        <polygon
          fill="#231F20"
          points="70.98,200.86 95.23,186.86 91.55,184.52 66.97,198.71    "
        />
        <path
          fill="#FFFFFF"
          d="M88.96,193.7l1.85-2.36c-16.79-13.1-34.18-30.64-35.88-61.37l-3,0.17     C53.69,162.06,71.64,180.18,88.96,193.7"
        />
        <path
          fill="#231F20"
          d="M121.27,203.31c0,0,52.36-24.17,58.43-64.8l62.76-37.25l-30.11,76.05l-29.53,17.05l-11.08-6.4     l-50.47,30.02V203.31z"
        />
        <polygon
          fill="#FFFFFF"
          points="231.95,130.05 196.86,150.31 231.95,138.97    "
        />
        <polygon
          fill="#FFFFFF"
          points="223.73,156.62 197.9,171.53 223.73,163.19    "
        />
        <polygon
          fill="#FFFFFF"
          points="10.59,130.05 45.68,150.31 10.59,138.97    "
        />
        <polygon
          fill="#FFFFFF"
          points="18.81,156.62 44.64,171.53 18.81,163.19    "
        />
        <path
          fill="#231F20"
          d="M121.27,61.3l44.36,9.37v61.31c0,0.07-0.24,7.54-5.64,17.89c-5.17,9.93-16.06,24.23-38.72,37.31     c-17.64-10.18-30.8-22.69-38.21-36.35c-5.78-10.65-6.13-18.48-6.15-18.91V70.67L121.27,61.3 M121.27,53.12L68.91,64.18v67.79     c0,0,0,36.12,52.36,64.36c52.36-28.24,52.36-64.36,52.36-64.36V64.18L121.27,53.12z"
        />
        <polygon
          fill="#FFFFFF"
          points="181.17,206.5 145.95,186.16 121.27,203.31 96.59,186.16 61.37,206.5 92.35,206.5 107.4,221.31      135.11,221.31 149.43,206.5    "
        />
        <polygon
          fill="#231F20"
          points="152.64,83.05 144.15,89.75 147.33,100.32 138.58,94 129.89,100.42 132.98,89.82 124.43,83.22      135.08,82.98 138.49,72.48 141.99,82.94    "
        />
        <polygon
          fill="#231F20"
          points="119.27,83.05 110.78,89.75 113.96,100.32 105.21,94 96.52,100.42 99.6,89.82 91.06,83.22      101.71,82.98 105.12,72.48 108.62,82.94    "
        />
        <polygon
          fill="#231F20"
          points="152.64,113.55 144.15,120.25 147.33,130.82 138.58,124.5 129.89,130.92 132.98,120.32      124.43,113.72 135.08,113.48 138.49,102.98 141.99,113.44    "
        />
        <polygon
          fill="#231F20"
          points="119.27,113.55 110.78,120.25 113.96,130.82 105.21,124.5 96.52,130.92 99.6,120.32 91.06,113.72      101.71,113.48 105.12,102.98 108.62,113.44    "
        />
        <polygon
          fill="#231F20"
          points="173.63,59.96 121.27,49.61 68.91,59.96 68.91,53.93 121.27,43.57 173.63,53.93    "
        />
        <polygon
          fill="#231F20"
          points="171.57,200.86 147.31,186.86 150.99,184.52 175.57,198.71    "
        />
        <path
          fill="#231F20"
          d="M68.91,49.49V43.6l47.08-9.7c-2.91-4.55-4.07-9-3.45-13.29c1.05-7.21,6.84-11.04,7.09-11.2l1.63-1.05     l1.63,1.05c0.25,0.16,6.05,3.99,7.1,11.2c0.63,4.29-0.53,8.75-3.44,13.29l47.08,9.85v5.89l-52.36-10.51L68.91,49.49z      M121.26,15.91c-1.11,1.2-2.44,3.11-2.79,5.63c-0.4,2.9,0.54,6.08,2.8,9.48c2.26-3.4,3.19-6.57,2.79-9.47     C123.71,19.02,122.38,17.11,121.26,15.91"
        />
        <g>
          <defs>
            <polygon
              id="SVGID_13_"
              points="121.27,203.31 95.17,186.86 61.37,206.5 121.27,238.29 181.17,206.5 147.31,186.86      "
            />
          </defs>
          <clipPath id="SVGID_2_">
            <use xlink:href="#SVGID_13_" overflow="visible" />
          </clipPath>
          <path
            clip-path="url(#SVGID_2_)"
            fill="#231F20"
            d="M121.27,183.07l34.21,20.05l-34.21,20.05l-34.21-20.05L121.27,183.07z       M121.27,176.12l-46.08,27.01l46.08,27.01l46.08-27.01L121.27,176.12z"
          />
        </g>
        <polygon
          fill="#231F20"
          points="183.69,196.33 168.26,205.15 166.03,214.8 171.47,207.66 181.75,204.7 185.72,207.71      184.83,200.95 189.12,201.29    "
        />
        <path
          fill="#FFFFFF"
          d="M153.58,193.7l-1.85-2.36c16.79-13.1,34.18-30.64,35.88-61.37l3,0.17     C188.85,162.06,170.9,180.18,153.58,193.7"
        />
        <polygon
          fill="#231F20"
          points="58.85,196.33 74.28,205.15 76.51,214.8 71.07,207.66 60.79,204.7 56.82,207.71 57.71,200.95      53.42,201.29    "
        />
        <path
          fill="#231F20"
          d="M109.48,198.93v-12.74l-4.04,1.1l-9.13-5.38l3.21-14.82c-0.38-1.77-1.77-9.66,1.4-16.79     c3.74-8.43,10.02-12.18,20.36-12.18s16.62,3.76,20.36,12.18c3.17,7.14,1.77,15.03,1.4,16.79l3.21,14.82l-9.13,5.38l-4.04-1.1     v12.74l-11.79,6.1L109.48,198.93z M121.27,183.71l2.63-1.24l-2.63-5.84l-2.63,5.84L121.27,183.71z M104.64,176.99     c3.13-0.15,9.29-0.99,11.89-5.26l-9.77-4.07L104.64,176.99z M126.04,171.72c1.06,1.64,2.89,2.92,5.44,3.83     c2.67,0.96,4.95,1.29,6.42,1.41l-2.11-9.3L126.04,171.72z"
        />
        <path
          fill="#FFFFFF"
          d="M121.27,139.6c10.43,0,15.71,3.92,18.99,11.29c3.35,7.55,1.23,16.18,1.23,16.18l3.05,14.08l-7.65,4.51     l-5.32-1.45v13.79l-10.29,5.33l-10.29-5.33v-13.79l-5.32,1.45L98,181.16l3.05-14.08c0,0-2.12-8.63,1.23-16.18     C105.56,143.52,110.84,139.6,121.27,139.6 M139.21,178.51c0.38,0,0.58-0.01,0.58-0.01l-2.93-12.91l-12.88,5.36     c1.16,3.09,3.96,4.93,7,6.01C134.86,178.35,137.97,178.51,139.21,178.51 M103.5,178.51c2.76,0,12.42-0.51,15.06-7.56l-12.88-5.36     l-2.93,12.91C102.76,178.5,103.03,178.51,103.5,178.51 M121.27,185.37l4.61-2.17l-4.61-10.21l-4.6,10.21L121.27,185.37      M121.27,136.6c-11.01,0-17.72,4.03-21.73,13.07c-3.18,7.16-2.02,15-1.56,17.39l-2.91,13.46l-0.46,2.12l1.87,1.1l7.65,4.51     l1.09,0.64l1.22-0.33l1.54-0.42v9.87v1.83l1.62,0.84l10.29,5.33l1.38,0.71l1.38-0.71l10.29-5.33l1.62-0.84v-1.83v-9.87l1.54,0.42     l1.22,0.33l1.09-0.64l7.65-4.51l1.87-1.1l-0.46-2.12l-2.91-13.46c0.47-2.39,1.62-10.23-1.56-17.39     C138.99,140.64,132.28,136.6,121.27,136.6 M128.56,172.29l6.16-2.57l1.24,5.47c-1.14-0.2-2.49-0.53-3.97-1.06     C130.58,173.64,129.43,173.02,128.56,172.29 M106.56,175.3l1.27-5.58l6.26,2.61C112.06,174.22,108.94,174.99,106.56,175.3      M120.61,181.74l0.66-1.46l0.66,1.46l-0.66,0.31L120.61,181.74z"
        />
        <line fill="#231F20" x1="121.27" y1="191.31" x2="121.27" y2="211.98" />
        <line
          fill="none"
          stroke="#FFFFFF"
          stroke-width="2"
          stroke-miterlimit="10"
          x1="121.27"
          y1="191.31"
          x2="121.27"
          y2="211.98"
        />
        <line fill="#231F20" x1="115.27" y1="189.31" x2="115.27" y2="209.98" />
        <line
          fill="none"
          stroke="#FFFFFF"
          stroke-width="2"
          stroke-miterlimit="10"
          x1="115.27"
          y1="189.31"
          x2="115.27"
          y2="209.98"
        />
        <line fill="#231F20" x1="127.27" y1="189.31" x2="127.27" y2="209.98" />
        <line
          fill="none"
          stroke="#FFFFFF"
          stroke-width="2"
          stroke-miterlimit="10"
          x1="127.27"
          y1="189.31"
          x2="127.27"
          y2="209.98"
        />
      </g>
    </g>
  </g>
  <g id="Info" display="none" />
  <g id="Ranks_Old" display="none">
    <g display="inline">
      <path
        fill="#D0D2D3"
        d="M121.27,53.12L68.91,64.05v23.13v44.79c0,0,0,36.12,52.36,64.36c52.36-28.24,52.36-64.36,52.36-64.36    V64.05L121.27,53.12z"
      />
      <path
        fill="none"
        stroke="#D0D2D3"
        stroke-width="8"
        stroke-linejoin="round"
        stroke-miterlimit="10"
        d="M121.27,53.12    L68.91,64.05v23.13v44.79c0,0,0,36.12,52.36,64.36c52.36-28.24,52.36-64.36,52.36-64.36V64.05L121.27,53.12z"
      />
      <path
        fill="#231F20"
        d="M121.27,61.3l44.36,9.37v61.31c0,0.07-0.24,7.54-5.64,17.89c-5.17,9.93-16.06,24.23-38.72,37.31    c-17.64-10.18-30.8-22.69-38.21-36.35c-5.78-10.65-6.13-18.48-6.14-18.91V70.67L121.27,61.3 M121.27,53.12L68.91,64.18v67.79    c0,0,0,36.12,52.36,64.36c52.36-28.24,52.36-64.36,52.36-64.36V64.18L121.27,53.12z"
      />
      <polyline
        fill="none"
        stroke="#231F20"
        stroke-width="5"
        stroke-miterlimit="10"
        points="73.93,100.33 121.35,68.14     168.76,100.33   "
      />
      <polygon
        fill="#231F20"
        points="119.58,113.51 109.71,121.3 113.4,133.58 103.23,126.24 93.13,133.7 96.72,121.38 86.78,113.71     99.16,113.43 103.13,101.23 107.19,113.38   "
      />
      <polygon
        fill="#231F20"
        points="155.05,113.51 145.18,121.3 148.88,133.58 138.71,126.24 128.61,133.7 132.19,121.38     122.26,113.71 134.64,113.43 138.6,101.23 142.67,113.38   "
      />
    </g>
  </g>
  <g id="Rank">
    <g>
      <path
        fill="#A94000"
        stroke="#A94000"
        stroke-width="8"
        stroke-linecap="round"
        stroke-linejoin="round"
        stroke-miterlimit="10"
        d="    M121.27,52.58L68.91,63.51v23.13v44.79c0,0,0,36.12,52.36,64.36c52.36-28.24,52.36-64.36,52.36-64.36V63.51L121.27,52.58z"
      />
      <path
        fill="#231F20"
        d="M121.27,60.76l44.36,9.37v61.31c0,0.07-0.24,7.54-5.64,17.89c-5.17,9.93-16.06,24.23-38.72,37.31    c-17.64-10.18-30.81-22.69-38.22-36.35c-5.78-10.65-6.13-18.48-6.15-18.91V70.13L121.27,60.76 M121.27,52.58L68.91,63.64v67.79    c0,0,0,36.12,52.36,64.36c52.36-28.24,52.36-64.36,52.36-64.36V63.64L121.27,52.58z"
      />
      <polyline
        fill="none"
        stroke="#231F20"
        stroke-width="5"
        stroke-miterlimit="10"
        points="73.93,99.78 121.34,67.59 168.76,99.78       "
      />
      <polygon
        fill="#231F20"
        points="119.58,112.97 109.7,120.75 113.4,133.04 103.23,125.7 93.13,133.16 96.72,120.84 86.78,113.17     99.16,112.89 103.12,100.69 107.19,112.84   "
      />
      <polygon
        fill="#231F20"
        points="155.05,112.97 145.18,120.75 148.87,133.04 138.7,125.7 128.6,133.16 132.19,120.84     122.26,113.17 134.64,112.89 138.6,100.69 142.67,112.84   "
      />
    </g>
  </g>
</svg>
