<?xml version="1.0" encoding="UTF-8" ?>
<!-- Generator: Adobe Illustrator 16.0.2, SVG Export Plug-In . SVG Version: 6.00 Build 0)  -->
<!DOCTYPE svg PUBLIC "-//W3C//DTD SVG 1.1//EN"
  "http://www.w3.org/Graphics/SVG/1.1/DTD/svg11.dtd">
<svg
  version="1.1"
  xmlns="http://www.w3.org/2000/svg"
  xmlns:xlink="http://www.w3.org/1999/xlink"
  x="0px"
  y="0px"
  width="242.38px"
  height="242.38px"
  viewBox="0 0 242.38 242.38"
  enable-background="new 0 0 242.38 242.38"
  xml:space="preserve"
>
  <g id="Frame_Ref" display="none">
    <g display="inline">
      <g>
        <rect
          x="0.29"
          y="-0.16"
          fill="none"
          stroke="#929497"
          stroke-width="0.5"
          stroke-miterlimit="10"
          width="242.38"
          height="242.38"
        />
        <polygon
          fill="none"
          stroke="#929497"
          stroke-width="0.5"
          stroke-miterlimit="10"
          points="30.4,72.14 121.48,19.55 212.57,72.14      212.57,177.31 121.48,229.9 30.4,177.31    "
        />
        <line
          fill="none"
          stroke="#929497"
          stroke-width="0.5"
          stroke-miterlimit="10"
          x1="0.29"
          y1="102.28"
          x2="242.67"
          y2="242.22"
        />
        <line
          fill="none"
          stroke="#929497"
          stroke-width="0.5"
          stroke-miterlimit="10"
          x1="242.67"
          y1="102.28"
          x2="0.29"
          y2="242.22"
        />
        <line
          fill="none"
          stroke="#929497"
          stroke-width="0.5"
          stroke-miterlimit="10"
          x1="0.29"
          y1="-0.16"
          x2="242.67"
          y2="139.78"
        />
        <line
          fill="none"
          stroke="#929497"
          stroke-width="0.5"
          stroke-miterlimit="10"
          x1="242.67"
          y1="-0.16"
          x2="0.29"
          y2="139.78"
        />
      </g>
      <g opacity="0.35">
        <path
          fill="#231F20"
          d="M121.48,203.31c0,0-52.36-24.17-58.43-64.8L0.29,101.26l30.11,76.05l29.53,17.05l11.08-6.4l50.47,30.02     V203.31z"
        />
        <polygon
          fill="#FFFFFF"
          points="10.8,130.05 45.9,150.31 10.8,138.97    "
        />
        <polygon
          fill="#FFFFFF"
          points="19.03,156.62 44.85,171.53 19.03,163.19    "
        />
        <polygon
          fill="#231F20"
          points="71.19,200.86 95.44,186.86 91.77,184.52 67.18,198.71    "
        />
        <path
          fill="#FFFFFF"
          d="M89.17,193.7l1.85-2.36c-16.79-13.1-34.18-30.64-35.88-61.37l-3,0.17     C53.9,162.06,71.85,180.18,89.17,193.7"
        />
        <path
          fill="#231F20"
          d="M121.48,203.31c0,0,52.36-24.17,58.43-64.8l62.76-37.25l-30.11,76.05l-29.53,17.05l-11.08-6.4     l-50.47,30.02V203.31z"
        />
        <polygon
          fill="#FFFFFF"
          points="232.16,130.05 197.07,150.31 232.16,138.97    "
        />
        <polygon
          fill="#FFFFFF"
          points="223.94,156.62 198.12,171.53 223.94,163.19    "
        />
        <polygon
          fill="#FFFFFF"
          points="10.8,130.05 45.9,150.31 10.8,138.97    "
        />
        <polygon
          fill="#FFFFFF"
          points="19.03,156.62 44.85,171.53 19.03,163.19    "
        />
        <path
          fill="#231F20"
          d="M121.48,61.3l44.36,9.37v61.31c0,0.07-0.24,7.54-5.64,17.89c-5.17,9.93-16.06,24.23-38.72,37.31     c-17.64-10.18-30.8-22.69-38.21-36.35c-5.78-10.65-6.13-18.48-6.15-18.91V70.67L121.48,61.3 M121.48,53.12L69.12,64.18v67.79     c0,0,0,36.12,52.36,64.36c52.36-28.24,52.36-64.36,52.36-64.36V64.18L121.48,53.12z"
        />
        <polygon
          fill="#FFFFFF"
          points="181.39,206.5 146.16,186.16 121.48,203.31 96.8,186.16 61.58,206.5 92.56,206.5 107.61,221.31      135.32,221.31 149.64,206.5    "
        />
        <polygon
          fill="#231F20"
          points="152.86,83.05 144.37,89.75 147.54,100.32 138.79,94 130.11,100.42 133.19,89.82 124.65,83.22      135.29,82.98 138.7,72.48 142.2,82.94    "
        />
        <polygon
          fill="#231F20"
          points="119.48,83.05 110.99,89.75 114.17,100.32 105.42,94 96.73,100.42 99.82,89.82 91.27,83.22      101.92,82.98 105.33,72.48 108.83,82.94    "
        />
        <polygon
          fill="#231F20"
          points="152.86,113.55 144.37,120.25 147.54,130.82 138.79,124.5 130.11,130.92 133.19,120.32      124.65,113.72 135.29,113.48 138.7,102.98 142.2,113.44    "
        />
        <polygon
          fill="#231F20"
          points="119.48,113.55 110.99,120.25 114.17,130.82 105.42,124.5 96.73,130.92 99.82,120.32      91.27,113.72 101.92,113.48 105.33,102.98 108.83,113.44    "
        />
        <polygon
          fill="#231F20"
          points="173.84,59.96 121.48,49.61 69.12,59.96 69.12,53.93 121.48,43.57 173.84,53.93    "
        />
        <polygon
          fill="#231F20"
          points="171.78,200.86 147.53,186.86 151.2,184.52 175.79,198.71    "
        />
        <path
          fill="#231F20"
          d="M69.12,49.49V43.6l47.08-9.7c-2.91-4.55-4.07-9-3.45-13.29c1.05-7.21,6.84-11.04,7.09-11.2l1.63-1.05     l1.63,1.05c0.25,0.16,6.05,3.99,7.1,11.2c0.63,4.29-0.53,8.75-3.44,13.29l47.08,9.85v5.89l-52.36-10.51L69.12,49.49z      M121.47,15.91c-1.11,1.2-2.44,3.11-2.79,5.63c-0.4,2.9,0.54,6.08,2.8,9.48c2.26-3.4,3.19-6.57,2.79-9.47     C123.93,19.02,122.59,17.11,121.47,15.91"
        />
        <g>
          <defs>
            <polygon
              id="SVGID_23_"
              points="121.48,203.31 95.38,186.86 61.58,206.5 121.48,238.29 181.39,206.5 147.53,186.86      "
            />
          </defs>
          <clipPath id="SVGID_2_">
            <use xlink:href="#SVGID_23_" overflow="visible" />
          </clipPath>
          <path
            clip-path="url(#SVGID_2_)"
            fill="#231F20"
            d="M121.48,183.07l34.21,20.05l-34.21,20.05l-34.21-20.05L121.48,183.07z       M121.48,176.12l-46.08,27.01l46.08,27.01l46.08-27.01L121.48,176.12z"
          />
        </g>
        <polygon
          fill="#231F20"
          points="183.9,196.33 168.47,205.15 166.24,214.8 171.68,207.66 181.96,204.7 185.94,207.71      185.04,200.95 189.33,201.29    "
        />
        <path
          fill="#FFFFFF"
          d="M153.79,193.7l-1.85-2.36c16.79-13.1,34.18-30.64,35.88-61.37l3,0.17     C189.06,162.06,171.12,180.18,153.79,193.7"
        />
        <polygon
          fill="#231F20"
          points="59.06,196.33 74.49,205.15 76.72,214.8 71.29,207.66 61,204.7 57.03,207.71 57.92,200.95      53.64,201.29    "
        />
        <path
          fill="#231F20"
          d="M109.69,198.93v-12.74l-4.04,1.1l-9.13-5.38l3.21-14.82c-0.38-1.77-1.77-9.66,1.4-16.79     c3.74-8.43,10.02-12.18,20.36-12.18s16.62,3.76,20.36,12.18c3.17,7.14,1.77,15.03,1.4,16.79l3.21,14.82l-9.13,5.38l-4.04-1.1     v12.74l-11.79,6.1L109.69,198.93z M121.48,183.71l2.63-1.24l-2.63-5.84l-2.63,5.84L121.48,183.71z M104.85,176.99     c3.13-0.15,9.29-0.99,11.89-5.26l-9.77-4.07L104.85,176.99z M126.25,171.72c1.06,1.64,2.89,2.92,5.44,3.83     c2.67,0.96,4.95,1.29,6.42,1.41l-2.11-9.3L126.25,171.72z"
        />
        <path
          fill="#FFFFFF"
          d="M121.48,139.6c10.43,0,15.71,3.92,18.99,11.29c3.35,7.55,1.23,16.18,1.23,16.18l3.05,14.08l-7.65,4.51     l-5.32-1.45v13.79l-10.29,5.33l-10.29-5.33v-13.79l-5.32,1.45l-7.65-4.51l3.05-14.08c0,0-2.12-8.63,1.23-16.18     C105.77,143.52,111.05,139.6,121.48,139.6 M139.42,178.51c0.38,0,0.58-0.01,0.58-0.01l-2.93-12.91l-12.88,5.36     c1.16,3.09,3.96,4.93,7,6.01C135.07,178.35,138.18,178.51,139.42,178.51 M103.71,178.51c2.76,0,12.42-0.51,15.06-7.56     l-12.88-5.36l-2.93,12.91C102.97,178.5,103.24,178.51,103.71,178.51 M121.48,185.37l4.61-2.17l-4.61-10.21l-4.6,10.21     L121.48,185.37 M121.48,136.6c-11.01,0-17.72,4.03-21.73,13.07c-3.18,7.16-2.02,15-1.56,17.39l-2.91,13.46l-0.46,2.12l1.87,1.1     l7.65,4.51l1.09,0.64l1.22-0.33l1.54-0.42v9.87v1.83l1.62,0.84l10.29,5.33l1.38,0.71l1.38-0.71l10.29-5.33l1.62-0.84v-1.83v-9.87     l1.54,0.42l1.22,0.33l1.09-0.64l7.65-4.51l1.87-1.1l-0.46-2.12l-2.91-13.46c0.47-2.39,1.62-10.23-1.56-17.39     C139.2,140.64,132.5,136.6,121.48,136.6 M128.77,172.29l6.16-2.57l1.24,5.47c-1.14-0.2-2.49-0.53-3.97-1.06     C130.79,173.64,129.65,173.02,128.77,172.29 M106.77,175.3l1.27-5.58l6.26,2.61C112.27,174.22,109.15,174.99,106.77,175.3      M120.83,181.74l0.66-1.46l0.66,1.46l-0.66,0.31L120.83,181.74z"
        />
        <line fill="#231F20" x1="121.48" y1="191.31" x2="121.48" y2="211.98" />
        <line
          fill="none"
          stroke="#FFFFFF"
          stroke-width="2"
          stroke-miterlimit="10"
          x1="121.48"
          y1="191.31"
          x2="121.48"
          y2="211.98"
        />
        <line fill="#231F20" x1="115.48" y1="189.31" x2="115.48" y2="209.98" />
        <line
          fill="none"
          stroke="#FFFFFF"
          stroke-width="2"
          stroke-miterlimit="10"
          x1="115.48"
          y1="189.31"
          x2="115.48"
          y2="209.98"
        />
        <line fill="#231F20" x1="127.48" y1="189.31" x2="127.48" y2="209.98" />
        <line
          fill="none"
          stroke="#FFFFFF"
          stroke-width="2"
          stroke-miterlimit="10"
          x1="127.48"
          y1="189.31"
          x2="127.48"
          y2="209.98"
        />
      </g>
    </g>
  </g>
  <g id="Info" display="none" />
  <g id="Ranks_Old" display="none">
    <g display="inline">
      <path
        fill="#D0D2D3"
        d="M121.48,53.12L69.12,64.05v23.13v44.79c0,0,0,36.12,52.36,64.36c52.36-28.24,52.36-64.36,52.36-64.36    V64.05L121.48,53.12z"
      />
      <path
        fill="none"
        stroke="#D0D2D3"
        stroke-width="8"
        stroke-linejoin="round"
        stroke-miterlimit="10"
        d="M121.48,53.12    L69.12,64.05v23.13v44.79c0,0,0,36.12,52.36,64.36c52.36-28.24,52.36-64.36,52.36-64.36V64.05L121.48,53.12z"
      />
      <path
        fill="#231F20"
        d="M121.48,61.3l44.36,9.37v61.31c0,0.07-0.24,7.54-5.64,17.89c-5.17,9.93-16.06,24.23-38.72,37.31    c-17.64-10.18-30.8-22.69-38.21-36.35c-5.78-10.65-6.13-18.48-6.14-18.91V70.67L121.48,61.3 M121.48,53.12L69.12,64.18v67.79    c0,0,0,36.12,52.36,64.36c52.36-28.24,52.36-64.36,52.36-64.36V64.18L121.48,53.12z"
      />
      <polyline
        fill="none"
        stroke="#231F20"
        stroke-width="5"
        stroke-miterlimit="10"
        points="73.8,100.33 121.22,68.14 168.63,100.33       "
      />
      <polygon
        fill="#231F20"
        points="119.88,106.51 110.01,114.3 113.7,126.58 103.53,119.24 93.43,126.7 97.02,114.38 87.08,106.71     99.46,106.43 103.43,94.23 107.49,106.38   "
      />
      <polygon
        fill="#231F20"
        points="155.35,106.51 145.48,114.3 149.18,126.58 139.01,119.24 128.91,126.7 132.49,114.38     122.56,106.71 134.94,106.43 138.9,94.23 142.97,106.38   "
      />
      <polygon
        fill="#231F20"
        points="137.75,136.46 127.88,144.25 131.57,156.53 121.4,149.2 111.3,156.65 114.89,144.33     104.96,136.66 117.33,136.38 121.3,124.19 125.37,136.34   "
      />
    </g>
  </g>
  <g id="Rank">
    <g>
      <path
        fill="#A94000"
        stroke="#A94000"
        stroke-width="8"
        stroke-linecap="round"
        stroke-linejoin="round"
        stroke-miterlimit="10"
        d="    M121.48,52.58L69.12,63.51v23.13v44.79c0,0,0,36.12,52.36,64.36c52.36-28.24,52.36-64.36,52.36-64.36V63.51L121.48,52.58z"
      />
      <path
        fill="#231F20"
        d="M121.48,60.76l44.36,9.37v61.31c0,0.07-0.24,7.54-5.64,17.89c-5.17,9.93-16.06,24.23-38.72,37.31    c-17.64-10.18-30.8-22.69-38.21-36.35c-5.78-10.65-6.13-18.48-6.14-18.91V70.13L121.48,60.76 M121.48,52.58L69.12,63.64v67.79    c0,0,0,36.12,52.36,64.36c52.36-28.24,52.36-64.36,52.36-64.36V63.64L121.48,52.58z"
      />
      <polyline
        fill="none"
        stroke="#231F20"
        stroke-width="5"
        stroke-miterlimit="10"
        points="73.81,99.78 121.22,67.59 168.64,99.78       "
      />
      <polygon
        fill="#231F20"
        points="119.88,105.97 110.01,113.75 113.71,126.04 103.54,118.7 93.44,126.16 97.02,113.84 87.09,106.17     99.47,105.89 103.43,93.69 107.5,105.84   "
      />
      <polygon
        fill="#231F20"
        points="155.36,105.97 145.49,113.75 149.18,126.04 139.01,118.7 128.91,126.16 132.5,113.84     122.56,106.17 134.94,105.89 138.91,93.69 142.97,105.84   "
      />
      <polygon
        fill="#231F20"
        points="137.75,135.92 127.88,143.71 131.58,155.99 121.41,148.65 111.31,156.11 114.9,143.79     104.96,136.12 117.34,135.84 121.3,123.64 125.37,135.79   "
      />
    </g>
  </g>
</svg>
