<svg
  xmlns="http://www.w3.org/2000/svg"
  width="512"
  height="512"
  viewBox="0 0 512 512"
  fill="#ffffff"
  stroke="none"
  class="r6data__gadget r6data__gadget__simple r6data__gadget__simple__nitro_cell"
  id="nitro_cell"
>
  <path d="M295 16H329V128L332 141V436q0 10-10 10H190q-10 0-10-10V152C180 100 216 66 230 66H283q12 0 12 6Z" />
  <path d="M101 53l25-25H283V54H230C211 54 168 90 168 152H101Z" />
  <path d="M341 25H386l25 25V153H344V141L341 128Z" />
  <path d="M345 181H411V338H344Z" />
  <path d="M344 366H411V465L383 496H135L101 463v-97h67v77q0 15 15 15h146q15 0 15-15Z" />
  <path d="M101 181H168V340H101Z" />
</svg>
