<svg
  xmlns="http://www.w3.org/2000/svg"
  width="512"
  height="512"
  viewBox="0 0 512 512"
  fill="#ffffff"
  stroke="none"
  class="r6data__gadget r6data__gadget__simple r6data__gadget__simple__observation_blocker"
  id="observation_blocker"
>
  <path d="M45 326V56H467V326H443V90H69V326Z" />
  <path
    d="M20 368 24 349 69 337 103 353 160 302H174L123 362 187 392 205 436ZM492 368 488 349 443 337 409 353 352 302H338L389 362 325 392 307 436Z"
  />
  <path d="M16 457V441H187l25 5 5-10H295l5 10 25-5H496V457Z" />
  <path
    d="M36 442v-7c0-12 16-12 16 0v7ZM72 442v-7c0-12 16-12 16 0v7ZM108 442v-7c0-12 16-12 16 0v7ZM388 442v-7c0-12 16-12 16 0v7ZM424 442v-7c0-12 16-12 16 0v7ZM460 442v-7c0-12 16-12 16 0v7Z"
  />
</svg>
