<svg
  xmlns="http://www.w3.org/2000/svg"
  width="512"
  height="512"
  viewBox="0 0 512 512"
  fill="#ffffff"
  stroke="none"
>
  <path fill-rule="evenodd" d="M184 348V448c0 27 144 27 144 0v-100ZM230 377h6v75h-6Zm46 0h6v75h-6ZM178 94l-86-50c-23-13-95 111-72 125l87 50Zm-48 25-3 5-65-37 3-5Zm-23 40-3 5-65-38 3-5ZM406 219l86-50c23-14-49-138-72-125l-87 50Zm2-54-3-5 65-38 3 5Zm-23-40-3-5 65-38 3 5ZM425 44v-44M184 348H328L406 219 333 94H178L107 219ZM155 212C143 182 168 138 200 134H313C345 138 370 182 358 212L301 314C281 340 231 340 211 314ZM164 213c-11-27 12-67 41-70h102c29 4 51 43 41 70l-51 92c-18 23-63 23-81 0z" />
</svg>
