<svg
  xmlns="http://www.w3.org/2000/svg"
  width="200"
  height="200"
  viewBox="0 0 200 200"
  fill="none"
  stroke="#ffffff"
  class="r6data__attachment r6data__attachment__barrel r6data__attachment__barrel__compensator"
  id="compensator"
>
  <rect fill="#000000" x="10" y="77" width="54" height="45" />
  <rect fill="#000000" x="10" y="72" width="18" height="56" rx="6" />
  <rect fill="#000000" x="37" y="72" width="18" height="56" rx="6" />
  <path fill="#000000" fill-rule="evenodd" d="M64 78Q64 72 70 72H182L173 81 188 89 173 100 188 111 172 119 182 128H70Q64 128 64 123ZM76 87Q76 81 82 81H106Q112 81 112 87V89Q112 95 106 95H82Q76 95 76 89ZM76 111Q76 105 82 105H106Q112 105 112 111V113Q112 119 106 119H82Q76 119 76 113ZM121 87Q121 81 127 81H151Q157 81 157 87V89Q157 95 151 95H127Q121 95 121 89ZM121 111Q121 105 127 105H151Q157 105 157 111V113Q157 119 151 119H127Q121 119 121 113Z" />
</svg>
