<svg
  xmlns="http://www.w3.org/2000/svg"
  width="200"
  height="200"
  viewBox="0 0 200 200"
  fill="none"
  stroke="#ffffff"
  class="r6data__attachment r6data__attachment__barrel r6data__attachment__barrel__extended_barrel"
  id="extended_barrel"
>
  <path fill="#000000" d="M27 92H13Q10 92 10 95V105Q10 108 13 108H27" />
  <g stroke-width="0.5">
    <line x1="12" y1="92" x2="12" y2="108" />
    <line x1="14" y1="92" x2="14" y2="108" />
    <line x1="16" y1="92" x2="16" y2="108" />
    <line x1="18" y1="92" x2="18" y2="108" />
    <line x1="20" y1="92" x2="20" y2="108" />
    <line x1="22" y1="92" x2="22" y2="108" />
    <line x1="24" y1="92" x2="24" y2="108" />
  </g>
  <path
    fill="#000000"
    d="M27 92Q27 90 29 90H39Q39 86 41 86H58L69 90H129L145 86H174L188 90Q190 91 190 92V107Q190 108 188 109L174 113H145L129 110H69L58 113H41Q39 113 39 110H29Q27 110 27 108Z"
  />
  <path d="M27 94H39M39 92H58L69 95H129L145 92H174L190 96" />
  <path d="M39 90V110M58 86V113M69 90V110M129 90V110M145 86V113M174 86V113" />
</svg>
