<svg
  xmlns="http://www.w3.org/2000/svg"
  width="200"
  height="200"
  viewBox="0 0 200 200"
  fill="none"
  stroke="#ffffff"
>
  <rect fill="#000000" x="12" y="61" width="25" height="78" rx="3" />
  <path
    fill="#000000"
    fill-rule="evenodd"
    d="M37 80H43Q45 80 45 78V74H52V78Q52 80 54 80H60Q62 80 62 78V74H69V78Q69 80 71 80H77Q79 80 79 78V74H93V80H170Q170 77 173 77H184Q187 77 187 80V88A13 13 0 00187 112V120Q187 123 184 123H173Q170 123 170 120H94V126H79V122Q79 120 77 120H71Q69 120 69 122V126H62V122Q62 120 60 120H54Q52 120 52 122V126H45V122Q45 120 43 120H37ZM98 92Q98 86 104 86H160Q166 86 166 92 166 98 160 98H104Q98 98 98 92M98 108Q98 102 104 102H160Q166 102 166 108 166 114 160 114H104Q98 114 98 108"
  />
  <path stroke-width="0.5" d="M40 80V120M57 80V120M74 80V120M170.25 80V120" />
</svg>
