<svg
  xmlns="http://www.w3.org/2000/svg"
  width="200"
  height="200"
  viewBox="0 0 200 200"
  fill="none"
  stroke="#ffffff"
  class="r6data__attachment r6data__attachment__barrel r6data__attachment__barrel__muzzle_brake"
  id="muzzle_brake"
>
  <path
    fill="#000000"
    fill-rule="evenodd"
    d="M10 78Q10 75 13 75H187Q190 75 190 78V122Q190 125 187 125H13Q10 125 10 122ZM108 85Q108 82 111 82H145Q148 82 148 85V115Q148 118 145 118H111Q108 118 108 115ZM154 85Q154 82 157 82H176Q179 82 179 85V115Q179 118 176 118H157Q154 118 154 116Z"
  />
  <rect fill="#000000" x="21" y="66" width="28" height="68" rx="3" />
  <path fill="#ffffff" stroke="none" d="M21 71H49V78H21Z" />
  <g stroke-width="0.5">
    <line x1="21" y1="83" x2="49" y2="83" />
    <line x1="21" y1="88" x2="49" y2="88" />
    <line x1="21" y1="93" x2="49" y2="93" />
    <line x1="21" y1="98" x2="49" y2="98" />
    <line x1="21" y1="103" x2="49" y2="103" />
    <line x1="21" y1="108" x2="49" y2="108" />
    <line x1="21" y1="113" x2="49" y2="113" />
    <line x1="21" y1="118" x2="49" y2="118" />
    <line x1="21" y1="123" x2="49" y2="123" />
    <line x1="21" y1="128" x2="49" y2="128" />
  </g>
  <rect fill="#000000" x="54" y="72" width="6" height="56" rx="3" />
  <path d="M10 79H19M54 77H60M60 79H101M105 79H182" />
  <path stroke-width="0.5" d="M105 75V125M186 75V125" />
</svg>
