<!-- NOTE: planks on ref looks rough but it was too hard to replicate -->
<svg
  xmlns="http://www.w3.org/2000/svg"
  width="200"
  height="200"
  viewBox="0 0 200 200"
  fill="#ffffff"
  stroke="none"
>
  <path
    d="M15 21 182 6 185 40 15 46ZM26 41a1 1 0 000-7 1 1 0 000 7M175 28a1 1 0 000-7 1 1 0 000 7"
  />
  <path d="M15 50 185 54V87L139 85 15 68ZM175 74a1 1 0 000-7 1 1 0 000 7" />
  <path
    d="M12 72 190 97 187 131 12 106ZM23 96a1 1 0 000-7 1 1 0 000 7M180 116a1 1 0 000-7 1 1 0 000 7"
  />
  <path
    d="M15 120H63L185 136V145L160 148 135 148 76 150 41 147H15ZM27 140a1 1 0 000-7 1 1 0 000 7"
  />
  <path
    d="M15 153H56L77 156 144 158 185 160V194L128 192 110 189 15 184ZM24 173a1 1 0 000-7 1 1 0 000 7M175 182a1 1 0 000-7 1 1 0 000 7"
  />
</svg>
