<svg
  xmlns="http://www.w3.org/2000/svg"
  width="512"
  height="512"
  viewBox="0 0 512 512"
  fill="#ffffff"
  stroke="none"
  class="r6data__action r6data__action__barricade"
  id="barricade"
>
  <path
    fill-rule="evenodd"
    d="M35 53 466 16 472 103 373 110 288 120 35 114ZM63 104a3 3 90 000-18 3 3 90 000 18M446 72a3 3 90 000-18 3 3 90 000 18"
  />
  <path
    fill-rule="evenodd"
    d="M35 125 167 129 279 128 390 136 471 135V223L356 218 35 173ZM447 189a3 3 90 000-18 3 3 90 000 18"
  />
  <path
    fill-rule="evenodd"
    d="M30 184 486 248 479 335 26 270ZM59 246a3 3 90 000-18 3 3 90 000 18M461 297a3 3 90 000-18 3 3 90 000 18"
  />
  <path
    fill-rule="evenodd"
    d="M35 305H161L474 348V371L410 379 346 379 195 384 99 378H35ZM64 359a3 3 90 000-18 3 3 90 000 18"
  />
  <path
    fill-rule="evenodd"
    d="M36 390H125L197 399 355 403 474 410 472 496 344 491 269 484 194 485 135 477 34 471ZM57 442a3 3 90 000-18 3 3 90 000 18M445 464a3 3 90 000-18 3 3 90 000 18"
  />
</svg>
