<svg
  xmlns="http://www.w3.org/2000/svg"
  width="512"
  height="512"
  viewBox="0 0 512 512"
  fill="#ffffff"
  stroke="none"
  class="r6data__action r6data__action__rappel"
  id="rappel"
>
  <path
    d="M313 16 295 176 181 328C135 390 177 409 171 496h-16C154 407 118 384 165 322L279 169 297 16h16"
  />
  <path
    d="M152 134C152 110 154 87 186 87 225 87 223 157 191 159 206 172 249 171 281 155L289 183C257 203 221 198 191 199V224C189 261 236 267 278 271 323 277 332 312 353 336 379 361 388 332 406 338 425 346 410 363 401 372L380 393C359 413 351 390 345 381L279 318C270 337 289 371 303 382 323 394 327 369 341 382 351 392 341 399 335 406L315 426C299 443 285 424 284 418 278 387 231 374 240 330H179C125 330 105 255 105 208 105 166 127 134 152 134"
  />
</svg>
