<!-- NOTE: kinda ugly, pr are welcome -->
<svg
  xmlns="http://www.w3.org/2000/svg"
  width="200"
  height="200"
  viewBox="0 0 200 200"
  fill="#ffffff"
  stroke="none"
>
  <path
    d="M115 10H121L112 61Q111 71 104 79L68 131C57 150 70 168 67 190H61C64 168 52 145 61 130L104 69Z"
  />
  <path
    d="M83 49C84 36 61 35 61 47V51C60 58 45 61 45 70V96C45 114 60 126 70 126H93V133C93 141 108 152 109 157Q112 171 119 164L130 154C132 152 130 148 123 150Q119 151 118 149 111 136 104 125C102 122 108 121 111 124 118 131 124 139 132 145Q136 157 144 150L155 139C158 136 153 134 149 135Q143 138 140 136C132 129 123 111 111 108 91 104 73 101 73 85V77H84Q105 78 111 68C114 64 109 59 107 62Q101 71 79 68 74 68 74 63C77 63 83 59 83 53Z"
  />
</svg>
