<svg
  xmlns="http://www.w3.org/2000/svg"
  width="200"
  height="200"
  viewBox="0 0 200 200"
  fill="#ffffff"
  stroke="none"
>
  <path d="M82 26l39 39-15 15-5-5 10-10-34-34Z" />
  <path d="M96 90l-11 11 38 36-16 16-5-5 11-11-38-36 16-16Z" />
  <path d="M92 158l5 5-11 11-5-5Z" />
  <path d="M120 31l-13 13-5-5 13-13Z" />
  <path d="M91 50l5 5-10 10 36 36-15 15-5-5 10-10-36-36Z" />
  <path d="M115 176l-39-39 15-15 5 5-10 10 34 34Z" />
  <path d="M10 23h180v8h-180ZM10 59h180v8h-180ZM10 133h180v8h-180ZM10 169h180v8h-180Z" />
  <path d="M10 97h25v8h-25ZM43 97h114v20h-114ZM165 97h25v8h-25Z" />
</svg>
