<svg
  xmlns="http://www.w3.org/2000/svg"
  width="512"
  height="512"
  viewBox="0 0 512 512"
  fill="#ffffff"
  stroke="none"
  class="r6data__action r6data__action__reinforcement"
  id="reinforcement"
>
  <defs>
    <path
      id="line-1-left"
      d="M211 60l109 102-100 97 99 96-100 97h-32l100-97-99-96 100-97-109-102Z"
    />
    <use
      id="line-1-right"
      href="#line-1-left"
      transform="translate(512) scale(-1 1)"
    />
    <path
      id="line-2-left"
      d="M227 60l109 102-100 97 99 96-100 97h-64l100-97-99-96 100-97-109-102Z"
    />
    <use
      id="line-2-right"
      href="#line-2-left"
      transform="translate(512) scale(-1 1)"
    />
    <mask id="mask-1">
      <rect fill="white" x="0" y="0" width="512" height="512" />
      <use fill="black" href="#line-2-right" />
      <path fill="white" d="M16 72H496V144H16Z" />
      <path fill="white" d="M16 268H496V340H16Z" />
    </mask>
    <mask id="mask-2">
      <rect fill="white" x="0" y="0" width="512" height="512" />
      <use fill="black" href="#line-2-left" />
      <path fill="white" d="M16 168H496V244H16Z" />
      <path fill="white" d="M16 364H496V440H16Z" />
    </mask>
    <mask id="mask-3">
      <rect fill="white" x="0" y="0" width="512" height="512" />
      <path fill="black" d="M87 243H425V305H87Z" />
    </mask>
  </defs>
  <use href="#line-1-left" mask="url(#mask-1)" />
  <use href="#line-1-right" mask="url(#mask-2)" />
  <path
    mask="url(#mask-3)"
    d="M16 48H496V72H16ZM16 144H496V168H16ZM16 244H496V268H16ZM16 340H496V364H16ZM16 440H496V464H16Z"
  />
  <path d="M103 244H409V304H103Z" />
</svg>
