<svg
  xmlns="http://www.w3.org/2000/svg"
  width="350"
  height="350"
  viewBox="0 0 350 350"
>
  <path opacity="0.4" d="M45 45h260v260H45z" />
  <path
    fill="#45abf3"
    d="M73 73h204v44l43-9-43 73V215l7 4-7 4V277H228l9 44-75-44H128l-4 7-4-7H73z"
  />
  <path
    fill-rule="evenodd"
    d="M113 30 201 92C207 96 212.488 94.071 214 88L220 65 251 143 258 133 315 111 252 199C247 206 254 212 258 213L280 219 206 248 231 313 148 254C138.7 247.4 131.4 251.1 130 256L124 278 93 201 86 210 27 234 91 145C95 139.5 94 133.5 85 131L63 125 138 96ZM167 137l40 30-30 40-40-30Z"
  />
  <g fill="#ffffff">
    <path
      d="M124 44 195 94C206.741 102.313 215.398 99.68 218 91L221 80 247 148 230 172 206 111 201 128 139 84Z"
    />
    <path
      d="M207 167 224.4 179.8 215.7 191.9C213.618 194.778 215 198 218 199L235 204 195 219 210 258 154 218C149.97 215.092 144.444 213.928 143 219L139 234 109 156 177 207Z"
    />
    <path
      d="M140 101 146 117 139 129 110 140 127 145 83 206 41 223 95 148C104 137 97 127 79 124Z"
    />
  </g>
</svg>
