<svg
  xmlns="http://www.w3.org/2000/svg"
  width="350"
  height="350"
  viewBox="0 0 350 350"
  class="r6data__operator r6data__operator__icon r6data__operator__icon__fenrir"
  id="operator__icon__fenrir"
>
  <rect x="45" y="45" width="260" height="260" opacity="0.4" />
  <path fill="#4e41a7" d="M73 73H277V277H73Z" />
  <g fill="#ffffff">
    <path d="M208 77C206 57 185 71 185 51 185 42 179 38 172 38 191 32 190 50 192 53 194 56 200 57 206 58 214 59 222 68 227 80Z" />
    <path d="M142 83H140C139 78 137 76 125 74 117 72 115 62 116 61 118 66 122 69 124.86 69.548 129.958 70.406 133 67 140 70Z" />
    <path d="M96 126C88 113 81 124 71 121 83 120 81 113 89.982 113.624 91.52 113.714 98 114 102 122Z" />
  </g>
  <path d="M45 305V239L24 245 40 221 56 180 61 171 65 160 56 160 75 142 82.016 137.463 74 135 104 121 98 109 110 108 115 96 132 97 128 80 141 82 137 37 173 68 170 41 192 74 251 84 269 100H323L336 101 341 118 319 137 309 150 310 139 306 138 296 148 298 138 272 146 258 163 253 181 255 188 260 195 267 201 274 197 271.447 204.268 271 208 266.671 215.606 266 225 258 227 247 228 200.56 189.046 219 212 221 228 236 241 225.815 240.296 256.965 273.389 245 271 268 305Z" />
  <g fill="#ffffff">
    <path d="M239 144 233 156C213 153 212 135 199 139 140 156 173 100 128 105 63 113 104 64 63 60 91 56 92 92 118 92 143 91 154 72 167 109 183 149 184 106 234 134Q247 131 253 137Z" />
    <path d="M222.572 169.997 223.606 175.671C209 174 204 157 178 164 129 180 154 126 114 128 157 123 142 163 171 152 210 143 205 161 222.589 161.52Z" />
  </g>
  <g fill="#4e41a7">
    <path d="M142 46 164 70 160 84 149 75Z" />
    <path d="M84 147 110 136 103 145 113 146 110 156 128 152 126 164 135 161 138 169 164 176 134 178 116 183 124 172 103 173 113 161 97 160 101 150Z" />
    <path fill-rule="evenodd" d="M169 92 211 95 219 89 231 89 248 92 254 99 263 101 258 108H280L306 104 316 105 328 116 329 120 322 130 305 129 268 132 260 130 269 128 277 120 252 117 249 121 222 119 207 107ZM232 93 248 99 251 110 243 112 232 112 226 104Z" />
    <path d="M256 139 273 139 269.327 140.409 252 160 248 174 237 157 242 146Z" />
    <path d="M226.581 160.588 229.338 159.64 238 170 242.72 180.268 257.583 195.958 247.519 202.578 235.186 191.909 226.747 174.604 225.568 169.939V161.525Z" />
    <path d="M258.671 197.155 266.771 205.636 265.652 206.873 256.905 206.49Z" />
    <path d="M35 237 45 227 53 204 54 230Z" />
    <path d="M91 205 89 220 96 221 94 232H103L107 246 122 239 124 269 114 257 101 260 93 240 82 243 88 227 79 225Z" />
    <path d="M171 235 194 245 197 239 207 243 201 224 210 225 204 199 212 209 215 227 225 236 213 233 214 251 202 248 198 254Z" />
    <path d="M231 250 249 269 233 265 239 264Z" />
  </g>
  <g fill="#ffffff">
    <ellipse cx="237" cy="104" rx="5" />
    <path d="M319 103 333.308 103.5 337.528 113.279V118Z" />
    <path d="M299 138 304 137 297.793 144.037Z" />
    <path d="M254.636 206.772Q251 207 249.335 203.696L256.518 198.372Z" />
  </g>
</svg>
