<svg xmlns="http://www.w3.org/2000/svg" viewBox="0 0 350 350">
  <rect x="45" y="45" width="260" height="260" opacity="0.4" />
  <path fill="#4e41a7" d="M73 73H277V277H73Z" />
  <g fill="#ffffff">
    <path
      d="M208 77C206 57 182 69 184 51 185 44 180 39 171 37 200 33 182 55 200 57 216 58 225 68 225 80Z"
    />
    <path
      d="M140 69 141 81C134 76 137 75 125 74 117 72 115 62 115 61 117 65 122 69 125 69Z"
    />
    <path d="M95 126C89 114 78 125 72 120 82 121 89 102 103 123Z" />
  </g>
  <path
    d="M45 305V238L24 245 40 219 64 159 56 160 81 136 73 136 105 121 98 109 131 101 128 80 141 82 137 37 173 68 170 41 192 74 251 83 269 100H337L340 111V119L310 148V138H306L296 147 298 138 273 145 257 164 254 178Q252.14 186.13 255 189L267 201 272 199 271 209 266 216V225L247 227 200 189 219 211 220 227 234 240 225 240 256 272 245 271 268 305Z"
  />
  <g fill="#ffffff">
    <path
      d="M239 143 234 155 228 155C211 152 213 135 199 139 137 155 173 101 128 105 61 112 104 66 63 60 91 56 92 92 118 92 143 91 153 72 166 109 184 148 184 106 234 134Q247 131 253 136Z"
    />
    <path
      d="M222 173 223 176C205 173 207 158 178 164 128 180 154 130 115 127 157 123 142 163 171 152 206 140 207 162 222 161Z"
    />
  </g>
  <g fill="#4e41a7">
    <path d="M142 46 164 70 160 84 149 75Z" />
    <path
      d="M84 147 109 136 103 146H113L110 156 128 151 126 164 135 160 137 168 164 176 134 178 116 183 123 172 103 173 112 161 96 160 100 149Z"
    />
    <path
      fill-rule="evenodd"
      d="M171 92 211 94 218 89 236 89 237 90C249 89 252 97 254 100H264L259 108H281C291 106 311 101 316 105L328 116 330 121 323 129 259 131 269 128 277 120 257 118 252 116 249 120 223 120 207 107ZM233 93 248 99 251 110 234 112 226 104Z"
    />
    <path d="M254 139 272 139 268 142 251 161 249 174 237 157 242 146Z" />
    <path
      d="M225 161 230 160 238 170 242 180 257 196 247 203 235 192 225 170Z"
    />
    <path d="M258 197 266 205V206L257 206 258 204Z" />
    <path d="M35 237 45 226 52 205V230Z" />
    <path
      d="M90 205 89 221H95L92 232H104L106 246 123 238V260L124 270 113 257 100 261 93 241 81 244 87 227 78 226Z"
    />
    <path
      d="M171 235 194 245 197 239 207 244 201 224 209 225 203 198 212 209 215 227 224 235H219L213 233 214 252 202 248 198 254Z"
    />
    <path d="M230 250 249 269 234 266 239 264Z" />
  </g>
  <g fill="#ffffff">
    <ellipse cx="237" cy="104" rx="5" />
    <path d="M319 103 333.308 103.5 337.528 113.279V118Z" />
    <path d="M299 138 304 137 297.793 144.037Z" />
    <path d="M254.636 206.772Q251 207 249.335 203.696L256.518 198.372Z" />
  </g>
</svg>
