<svg
  xmlns="http://www.w3.org/2000/svg"
  width="350"
  height="350"
  viewBox="0 0 350 350"
  class="r6data__operator r6data__operator__icon r6data__operator__icon__fenrir"
  id="operator__icon__fenrir"
>
  <defs>
    <mask id="mask">
      <rect fill="white" x="0" y="0" width="512" height="512" />
      <path
        id="arrowhead"
        fill="black"
        d="M47 118l10 16-19 6 1 3-6-3c-2.546-1.276-2-3 1-4l16-5-9-14c-1.2-1.9 1-4 3-3l6 3Z"
      />
      <use href="#arrowhead" transform="translate(18 9)" />
      <use href="#arrowhead" transform="translate(36 18)" />
      <use href="#arrowhead" transform="translate(54 27)" />
      <use href="#arrowhead" transform="translate(72 36)" />
    </mask>
  </defs>
  <rect x="45" y="45" width="260" height="260" opacity="0.4" />
  <path fill="#ff8a2b" d="M73 73H277V277H73Z" />
  <path
    mask="url(#mask)"
    d="M125 121 39 94 85 87C80 81 74 76 64 77 86 70 120 72 135 84 134 73 121 58 103 44 161 42 185 74 191 83 196 66 186 49 171 34 215 44 236 75 242 105 249 89 248 75 243 55 285 75 305 166 255 232L327 323 238 291 258 314 180 277 200 300 51 242 33 215 164 271 150 251 50 209 29 165 105 205 104 197 172 234 169 229 45 159V102L118 125Z"
  />
  <g fill="#ffffff">
    <path
      d="M104 96C103 89 96 82 86 78 100 76 123 83 128 93L118 94C127 94 145 96 151 98 153 83 143 65 133 57 163 59 184 96 189 105 182 103 175 102 169 103 177 104 189 109 194 114 208 101 208 75 197 54 227 75 233 115 231 132 222 123 214 118 204 116 218 123 226 133 230 144 251 131 256 108 257 83 289 134 262 184 231 221L208 211 206 200 208 195 211 196 221 189 228 164 219 167 210 159 209 155 211 155 213 142 201 119 197 127H186L183 125V123L176 113 153 104 155 113 149 117 88 99Z"
    />
    <g transform="rotate(-22.5 164 170)">
      <path
        fill="#000000"
        d="M123 169a1.44 1.2 90 0082 0 1.44 1.2 90 00-82 0"
      />
      <path
        fill-rule="evenodd"
        d="M130 169a1 1.2 0 0068 0 1 1.2 0 00-68 0M137 169a.96.8 90 0054 0 .96.8 90 00-54 0"
      />
      <path d="M143 169a.72.6 90 0042 0 .72.6 90 00-42 0" />
    </g>
    <path
      d="M254 251 303 305 211 271 224 287 148 247 164 271 66 229 59 212 136 245 119 217 198 263 186 245 283 292Z"
    />
  </g>
</svg>
